<?xml version="1.0" encoding="utf-8"?>
<!-- Generator: Adobe Illustrator 18.1.1, SVG Export Plug-In . SVG Version: 6.00 Build 0)  -->
<svg version="1.1" id="Layer_1" xmlns="http://www.w3.org/2000/svg" xmlns:xlink="http://www.w3.org/1999/xlink" x="0px" y="0px"
	 viewBox="0 0 102.5 153.9" enable-background="new 0 0 102.5 153.9" xml:space="preserve">
<g id="SIMBOLO">
	<path opacity="0.95" fill="#FFFFFF" d="M47.9,151.4c-0.2,0.1-0.4,0.2-0.5,0.2l0-0.1c0,0,0,0,0-0.1c0.1-0.8,3-19.5-5.9-27.9
		c-3.8-3.6-8.7-5.8-13.8-8.1c-8-3.6-16.3-7.4-22.7-16.8c-10.8-16.1,6.6-33.2,9.9-36.1c-0.8,3.1-2.5,13.9,5.7,24.1
		c3.9,4.8,13,8.7,19.3,12.7c4.1,2.6,6.6,4.4,10.3,7.4c-2.6-5.5-6.5-11.7-10.7-18.1C32,77.1,23.7,64.1,19.1,49.1
		c-2.7-8.8-1.8-16.9,2.6-24.1C31,10.1,53,3.5,57.6,2.2c-3.5,3.3-16.1,17.1-12.3,37.7c1.7,9.3,8.6,19,15.8,29.2
		c9.7,13.8,19.8,28,19.7,43.7C80.7,132.6,48.2,151.2,47.9,151.4z"/>
	<path opacity="0.95" fill="#FFFFFF" d="M98.3,47.1c-1.9,4.1-4.6,8-9.1,11.7c-3.4,2.7-7.9,3.2-11.8,3.1c-4-0.2-10.7-1.4-14.2-7.9
		c-3.9-7.3-3.3-15.5,1.8-22.1c12.4-15.9,3.2-27.2,1.3-29.6c3,0.9,28,8.4,33.5,25C101.7,33,101.5,40.3,98.3,47.1z"/>
</g>
</svg>
