<?xml version="1.0" encoding="utf-8"?>
<!-- Generator: Adobe Illustrator 18.1.1, SVG Export Plug-In . SVG Version: 6.00 Build 0)  -->
<svg version="1.1" id="Layer_1" xmlns="http://www.w3.org/2000/svg" xmlns:xlink="http://www.w3.org/1999/xlink" x="0px" y="0px"
	 viewBox="0 0 100 100" enable-background="new 0 0 100 100" xml:space="preserve">
<g id="ICONO_1_">
	<path fill="#FFFFFF" d="M15.5,54.3v40.5c0,1.5,1,2.5,1.8,3c0.9,0.5,1.8,0.7,2.8,0.7h18.4c0.6,0,1.3-0.3,1.7-0.7
		c0.4-0.4,0.7-1.1,0.7-1.7V76.6h18.3V96c0,0.6,0.3,1.3,0.7,1.7c0.4,0.4,1.1,0.7,1.7,0.7h18.4c1,0,1.9-0.2,2.7-0.7
		c0.8-0.5,1.8-1.4,1.8-3V54.3L50,22.7L15.5,54.3z"/>
	<path fill="#FFFFFF" d="M97.9,43.1L54.4,3.2c-2.5-2.3-6.2-2.3-8.7,0L2.1,43.1c-2.6,2.4-2.8,6.5-0.4,9.1l0,0c1.3,1.4,3,2.1,4.8,2.1
		c1.6,0,3.1-0.6,4.4-1.7L50,16.8l39.2,35.8c2.6,2.4,6.7,2.2,9.1-0.4C100.7,49.6,100.5,45.5,97.9,43.1z"/>
</g>
</svg>
