<?xml version="1.0" encoding="utf-8"?>
<!-- Generator: Adobe Illustrator 18.1.1, SVG Export Plug-In . SVG Version: 6.00 Build 0)  -->
<svg version="1.1" id="Layer_1" xmlns="http://www.w3.org/2000/svg" xmlns:xlink="http://www.w3.org/1999/xlink" x="0px" y="0px"
	 viewBox="0 0 100 100" enable-background="new 0 0 100 100" xml:space="preserve">
<g>
	<circle opacity="0.95" fill="#034E79" cx="50" cy="50" r="50"/>
	<path fill="#FFFFFF" d="M55,64.2h-2.4c-6.6,0-12.1-0.3-12.1-0.7c0-0.4,0.1-2.7,0.3-5.1c0,0,0,0,0.6-1.5c0.6-1.5,1.4-2.9,2.5-4.2
		c1.1-1.3,3.6-3.5,7.4-6.6c2.1-1.7,3.1-3.2,3.1-4.5c0-1.4-0.4-2.4-1.2-3.2c-0.8-0.8-2.1-1.1-3.7-1.1c-1.8,0-3.3,0.6-4.5,1.8
		c-1.2,1.2-1.9,3.2-2.3,6.2l-2.8-0.3C33.3,44,29.1,39,30.4,33.7c0,0,0,0,3.4-3.3c3.4-3.3,8.7-4.9,15.8-4.9c5.5,0,10,1.1,13.4,3.4
		C67.7,32,70,36.1,70,41.2c0,2.1-0.6,4.2-1.8,6.2c-1.2,2-3.6,4.4-7.3,7.3c-2.6,2-4.2,3.6-4.9,4.8C55.3,60.7,55,62.3,55,64.2z
		 M40.1,74.8c0-3.7,3.5-6.7,7.7-6.7s7.7,3,7.7,6.7s-3.5,6.7-7.7,6.7S40.1,78.5,40.1,74.8z"/>
</g>
</svg>
