<?xml version="1.0" encoding="utf-8"?>
<!-- Generator: Adobe Illustrator 18.1.1, SVG Export Plug-In . SVG Version: 6.00 Build 0)  -->
<svg version="1.1" id="Layer_1" xmlns="http://www.w3.org/2000/svg" xmlns:xlink="http://www.w3.org/1999/xlink" x="0px" y="0px"
	 viewBox="0 0 100 100" enable-background="new 0 0 100 100" xml:space="preserve">
<g>
	<path opacity="0.95" fill="#034E79" d="M28.2,55.5c-3.5,1.1-5.5,4.9-4.3,8.5c1.1,3.5,4.9,5.5,8.5,4.3c3.5-1.1,5.5-4.9,4.3-8.5
		C35.5,56.3,31.7,54.4,28.2,55.5z"/>
	<path opacity="0.95" fill="#034E79" d="M36.3,43.6c4.6-1.5,7.1-6.4,5.6-11c-1.5-4.6-6.4-7.1-11-5.6c-4.6,1.5-7.1,6.4-5.6,11
		C26.7,42.6,31.7,45.1,36.3,43.6z"/>
	<path opacity="0.95" fill="#034E79" d="M60.2,44.3c-7.1,2.3-11.1,10-8.8,17.1c2.3,7.1,10,11.1,17.1,8.8c7.1-2.3,11.1-10,8.8-17.1
		C75,45.9,67.4,42,60.2,44.3z"/>
	<path opacity="0.95" fill="#034E79" d="M50,0.3c-27.6,0-50,22.4-50,50c0,27.6,22.4,50,50,50c27.6,0,50-22.4,50-50
		C100,22.6,77.6,0.3,50,0.3z M18.7,32.1c0.2-1.1,1.1-1.8,1.8-1.7c0.8,0.2,1.6,0,1.8-0.5c0.2-0.4,0.3-1.9-0.3-2.4
		c-0.6-0.5-0.5-1.6,0.3-2.5c0.7-0.8,1.8-1,2.4-0.5c0.6,0.5,1.4,0.8,1.8,0.5c0.4-0.3,1.2-1.5,1-2.3c-0.2-0.8,0.4-1.7,1.5-2
		c1.1-0.3,2.1,0,2.4,0.8c0.2,0.8,0.8,1.4,1.3,1.3c0.5,0,1.8-0.7,2-1.5c0.2-0.8,1.2-1.2,2.3-1c1.1,0.2,1.8,1.1,1.6,1.8
		c-0.2,0.8,0,1.6,0.5,1.8c0.4,0.2,1.9,0.3,2.4-0.3c0.5-0.6,1.6-0.5,2.5,0.3c0.8,0.7,1,1.8,0.5,2.4c-0.5,0.6-0.8,1.4-0.5,1.8
		c0.3,0.4,1.5,1.2,2.3,1c0.8-0.2,1.7,0.4,2,1.5c0.3,1.1,0,2.1-0.8,2.4c-0.8,0.2-1.4,0.8-1.3,1.3c0.1,0.5,0.7,1.8,1.5,2
		c0.8,0.2,1.2,1.2,1,2.3c-0.2,1.1-1.1,1.8-1.8,1.6c-0.8-0.2-1.6,0-1.8,0.5c-0.2,0.4-0.3,1.9,0.3,2.4c0.6,0.5,0.5,1.6-0.3,2.5
		c-0.7,0.8-1.8,1-2.4,0.5c-0.6-0.5-1.4-0.8-1.8-0.5c-0.4,0.3-1.2,1.5-1,2.3c0.2,0.8-0.4,1.7-1.5,2c-1.1,0.3-2.1,0-2.4-0.8
		c-0.2-0.8-0.8-1.3-1.3-1.3c-0.5,0-1.8,0.7-2,1.5c-0.2,0.8-1.2,1.2-2.3,1c-1.1-0.2-1.8-1.1-1.7-1.8c0.2-0.8,0-1.6-0.5-1.8
		c-0.4-0.2-1.9-0.3-2.4,0.3c-0.5,0.6-1.6,0.5-2.5-0.3c-0.8-0.7-1-1.8-0.5-2.4c0.5-0.6,0.3-2.1,0-2.5c-0.2-0.4-1-0.5-1.8-0.3
		c-0.8,0.2-1.7-0.4-2-1.5c-0.3-1.1,0-2.1,0.8-2.4c0.8-0.2,1.4-0.8,1.3-1.3c0-0.5-0.7-1.8-1.5-2C18.9,34.2,18.5,33.2,18.7,32.1z
		 M84.7,64.8c-1.2-0.3-2.5,0.1-2.8,0.7c-0.3,0.7-0.5,3,0.4,3.8c0.9,0.8,0.7,2.6-0.4,3.8c-1.1,1.3-2.8,1.6-3.8,0.8
		c-0.9-0.8-2.2-1.2-2.7-0.8c-0.6,0.4-1.9,2.3-1.5,3.5c0.4,1.2-0.6,2.6-2.3,3.1c-1.6,0.5-3.3,0-3.7-1.2c-0.4-1.2-1.3-2.1-2-2
		c-0.7,0.1-2.8,1.1-3.1,2.3c-0.3,1.2-1.8,1.9-3.5,1.6c-1.7-0.4-2.8-1.7-2.6-2.9c0.3-1.2-0.1-2.5-0.7-2.8c-0.7-0.3-3-0.5-3.8,0.4
		c-0.8,0.9-2.6,0.7-3.8-0.4c-1.3-1.1-1.6-2.8-0.8-3.8c0.8-0.9,0.4-3.2,0.1-3.8c-0.4-0.6-1.6-0.8-2.8-0.4c-1.2,0.4-2.6-0.6-3.1-2.3
		c-0.1-0.2-0.1-0.4-0.1-0.6c0,0.2,0,0.4,0,0.5c-0.2,0.8-0.8,1.4-1.4,1.3c-0.6-0.1-1.2,0-1.4,0.3c-0.1,0.3-0.2,1.5,0.2,1.9
		c0.5,0.4,0.4,1.3-0.2,1.9c-0.6,0.6-1.4,0.8-1.9,0.4c-0.5-0.4-1.1-0.6-1.3-0.4c-0.3,0.2-0.9,1.2-0.8,1.7c0.2,0.6-0.3,1.3-1.1,1.5
		c-0.8,0.3-1.6,0-1.8-0.6c-0.2-0.6-0.6-1-1-1c-0.4,0-1.4,0.5-1.5,1.1c-0.1,0.6-0.9,1-1.7,0.8c-0.8-0.2-1.4-0.8-1.3-1.4
		c0.1-0.6,0-1.2-0.3-1.4c-0.3-0.1-1.5-0.2-1.9,0.2c-0.4,0.5-1.3,0.4-1.9-0.2c-0.6-0.6-0.8-1.4-0.4-1.9c0.4-0.5,0.2-1.6,0-1.9
		c-0.2-0.3-0.8-0.4-1.4-0.2c-0.6,0.2-1.3-0.3-1.5-1.1c-0.3-0.8,0-1.6,0.6-1.8c0.6-0.2,1-0.6,1-1c0-0.4-0.5-1.4-1.1-1.5
		c-0.6-0.1-1-0.9-0.8-1.7c0.2-0.8,0.8-1.4,1.4-1.3c0.6,0.1,1.2,0,1.4-0.4c0.1-0.3,0.2-1.5-0.2-1.9c-0.5-0.4-0.4-1.3,0.2-1.9
		c0.6-0.6,1.4-0.8,1.9-0.4c0.5,0.4,1.1,0.6,1.3,0.4c0.3-0.2,0.9-1.1,0.8-1.7c-0.2-0.6,0.3-1.3,1.1-1.5c0.8-0.3,1.6,0,1.8,0.6
		c0.2,0.6,0.6,1,1,1c0.4,0,1.4-0.5,1.5-1.1c0.1-0.6,0.9-0.9,1.7-0.8c0.8,0.2,1.4,0.8,1.3,1.4c-0.1,0.6,0,1.2,0.3,1.4
		c0.3,0.1,1.5,0.2,1.9-0.2c0.4-0.5,1.3-0.4,1.9,0.2c0.6,0.6,0.8,1.4,0.4,1.9c-0.4,0.5-0.6,1.1-0.4,1.3c0.2,0.3,1.1,0.9,1.7,0.8
		c0.6-0.2,1.3,0.3,1.5,1.1c0.3,0.8,0,1.6-0.6,1.8c-0.6,0.2-1,0.6-1,1c0,0.4,0.5,1.4,1.1,1.5c0.4,0.1,0.7,0.5,0.8,1.1
		c-0.2-1.4,0.4-2.6,1.4-2.9c1.2-0.4,2.1-1.3,2-2C45,58.1,44,56,42.8,55.8c-1.2-0.3-1.9-1.8-1.6-3.5c0.4-1.7,1.6-2.8,2.9-2.6
		c1.2,0.3,2.5-0.1,2.8-0.7c0.3-0.6,0.5-3-0.4-3.8c-0.9-0.8-0.7-2.6,0.4-3.8c1.2-1.3,2.8-1.6,3.8-0.8c0.9,0.8,2.1,1.2,2.7,0.8
		c0.6-0.4,1.9-2.3,1.5-3.5c-0.4-1.2,0.6-2.6,2.3-3.1c1.6-0.5,3.3,0,3.7,1.2c0.4,1.2,1.3,2.1,2,2c0.7-0.1,2.8-1.1,3.1-2.3
		c0.3-1.2,1.8-1.9,3.5-1.6c1.7,0.4,2.8,1.7,2.6,2.9c-0.3,1.2,0.1,2.5,0.7,2.8c0.6,0.3,3,0.5,3.8-0.4c0.8-0.9,2.6-0.7,3.8,0.4
		c1.3,1.2,1.6,2.8,0.8,3.8c-0.8,0.9-1.2,2.2-0.8,2.7c0.4,0.6,2.3,1.9,3.5,1.5c1.2-0.4,2.6,0.6,3.1,2.3c0.5,1.6,0,3.3-1.2,3.7
		c-1.2,0.4-2.1,1.3-2,2c0.1,0.7,1.1,2.8,2.3,3.1c1.2,0.3,1.9,1.8,1.6,3.5C87.2,63.9,85.9,65,84.7,64.8z"/>
</g>
</svg>
