<?xml version="1.0" encoding="utf-8"?>
<!-- Generator: Adobe Illustrator 18.1.1, SVG Export Plug-In . SVG Version: 6.00 Build 0)  -->
<svg version="1.1" id="Layer_1" xmlns="http://www.w3.org/2000/svg" xmlns:xlink="http://www.w3.org/1999/xlink" x="0px" y="0px"
	 viewBox="0 0 100 100" enable-background="new 0 0 100 100" xml:space="preserve">
<g>
	<path id="ICONO" fill="#FFFFFF" d="M79.1,24.7h-3c0.3,1.6,0.5,3.3,0.6,5l0,0.6H69l0-0.6c-0.1-1.8-0.4-3.5-0.8-5.1H31.8
		c-0.4,1.6-0.7,3.3-0.8,5.1l0,0.6h-7.6l0-0.6c0.1-1.7,0.3-3.4,0.6-5h-3C9.4,24.7,0,34.1,0,45.6v24.7c0,11.5,9.4,20.9,20.9,20.9h58.2
		c11.5,0,20.9-9.4,20.9-20.9V45.6C100,34.1,90.6,24.7,79.1,24.7z M30.5,24.7c1.7-6.6,5.8-11.4,11-11.5h17c5.2,0.1,9.3,4.9,11,11.5
		c0.4,1.4,0.6,2.9,0.7,4.4h5.2c-0.1-1.5-0.3-3-0.6-4.4c-1.8-9.3-7.3-16-13.5-15.9H38.7C32.5,8.7,27,15.4,25.2,24.7
		c-0.3,1.4-0.5,2.9-0.6,4.4h5.2C29.9,27.6,30.2,26.1,30.5,24.7z"/>
</g>
</svg>
