<?xml version="1.0" encoding="utf-8"?>
<!-- Generator: Adobe Illustrator 18.1.1, SVG Export Plug-In . SVG Version: 6.00 Build 0)  -->
<svg version="1.1" id="Layer_1" xmlns="http://www.w3.org/2000/svg" xmlns:xlink="http://www.w3.org/1999/xlink" x="0px" y="0px"
	 viewBox="86 0 228 228" enable-background="new 86 0 228 228" xml:space="preserve">
<g id="SIMBOLO_2_">
	
		<rect x="119.4" y="33.4" transform="matrix(0.7071 -0.7071 0.7071 0.7071 -22.0308 174.8115)" fill="#FFFFFF" width="161.2" height="161.2"/>
	<g>
		<g>
			<g>
				<g>
					<defs>
						
							<rect id="SVGID_1_" x="119.4" y="33.4" transform="matrix(0.7071 -0.7071 0.7071 0.7071 -22.0308 174.8115)" width="161.2" height="161.2"/>
					</defs>
					<clipPath id="SVGID_2_">
						<use xlink:href="#SVGID_1_"  overflow="visible"/>
					</clipPath>
					<path clip-path="url(#SVGID_2_)" fill="#E02F40" d="M177.4,265.1c-0.5,0.2-0.8,0.3-1,0.5l-0.1-0.1v-0.1
						c0.2-1.6,6.2-40.5-12.2-57.9c-7.9-7.4-18-12.1-28.7-16.9c-16.6-7.5-33.9-15.3-47.1-34.9c-22.5-33.4,13.8-68.9,20.5-75
						c-1.6,6.5-5.2,28.8,11.7,49.9c8.1,10,26.9,18,40,26.3c8.4,5.5,13.6,9,21.3,15.4c-5.4-11.5-13.6-24.2-22.2-37.6
						c-15.2-23.9-32.5-50.8-42-82c-5.6-18.4-3.6-35.1,5.5-49.9c19.2-31,64.9-44.8,74.4-47.3C190.3-37.7,164.1-9,172,33.8
						c3.5,19.3,17.8,39.3,32.8,60.6c20.2,28.6,41,58.1,40.9,90.6C245.5,225.8,178.1,264.6,177.4,265.1z"/>
				</g>
			</g>
		</g>
		<path fill="#E02F40" d="M267.1,77.3c-3.3,7-8,13.8-15.7,20.1c-5.8,4.7-13.6,5.6-20.4,5.2c-6.8-0.3-18.5-2.5-24.5-13.6
			c-6.8-12.5-5.6-26.8,3.1-38.1c21.3-27.4,5.6-46.9,2.3-51.1c5.1,1.5,48.2,14.5,57.8,43C273.1,53.1,272.7,65.7,267.1,77.3z"/>
	</g>
</g>
</svg>
