<?xml version="1.0" encoding="utf-8"?>
<!-- Generator: Adobe Illustrator 18.1.1, SVG Export Plug-In . SVG Version: 6.00 Build 0)  -->
<svg version="1.1" id="Layer_1" xmlns="http://www.w3.org/2000/svg" xmlns:xlink="http://www.w3.org/1999/xlink" x="0px" y="0px"
	 viewBox="0 0 200 200" enable-background="new 0 0 200 200" xml:space="preserve">
<g id="SIMBOLO_2_">
	
		<rect x="29.3" y="29.3" transform="matrix(0.7071 -0.7071 0.7071 0.7071 -41.4206 99.9997)" fill="#FFFFFF" width="141.4" height="141.4"/>
	<g>
		<g>
			<defs>
				
					<rect id="SVGID_3_" x="29.3" y="29.3" transform="matrix(0.7071 -0.7071 0.7071 0.7071 -41.4206 99.9997)" width="141.4" height="141.4"/>
			</defs>
			<clipPath id="SVGID_1_">
				<use xlink:href="#SVGID_3_"  overflow="visible"/>
			</clipPath>
			<path clip-path="url(#SVGID_1_)" fill="#B61F3A" d="M80.2,232.5c-0.4,0.2-0.7,0.3-0.9,0.4l-0.1-0.1c0,0,0-0.1,0-0.1
				c0.2-1.4,5.4-35.5-10.7-50.8c-6.9-6.5-15.8-10.6-25.2-14.8c-14.6-6.6-29.7-13.4-41.3-30.6c-19.7-29.3,12.1-60.4,18-65.8
				c-1.4,5.7-4.6,25.3,10.3,43.8c7.1,8.8,23.6,15.8,35.1,23.1c7.4,4.8,11.9,7.9,18.7,13.5c-4.7-10.1-11.9-21.2-19.5-33
				C51.3,97.1,36.1,73.5,27.8,46.2c-4.9-16.1-3.2-30.8,4.8-43.8c16.8-27.2,56.9-39.3,65.3-41.5c-6.3,6-29.3,31.1-22.4,68.7
				c3.1,16.9,15.6,34.5,28.8,53.2c17.7,25.1,36,51,35.9,79.5C139.9,198.1,80.8,232.1,80.2,232.5z"/>
		</g>
		<path fill="#B61F3A" d="M158.9,67.8c-2.9,6.1-7,12.1-13.8,17.6c-5.1,4.1-11.9,4.9-17.9,4.6c-6-0.3-16.2-2.2-21.5-11.9
			c-6-11-4.9-23.5,2.7-33.4c18.7-24,4.9-41.1,2-44.8c4.5,1.3,42.3,12.7,50.7,37.7C164.1,46.6,163.8,57.6,158.9,67.8z"/>
	</g>
</g>
</svg>
