<?xml version="1.0" encoding="utf-8"?>
<!-- Generator: Adobe Illustrator 18.1.1, SVG Export Plug-In . SVG Version: 6.00 Build 0)  -->
<svg version="1.1" id="Layer_1" xmlns="http://www.w3.org/2000/svg" xmlns:xlink="http://www.w3.org/1999/xlink" x="0px" y="0px"
	 viewBox="0 0 100 124.7" enable-background="new 0 0 100 124.7" xml:space="preserve">
<g id="SIMBOLO_1_">
	<g opacity="0.95">
		<path opacity="0.95" fill="#034E79" d="M41.9,97.8c-0.1,0.1-0.3,0.1-0.3,0.1l0,0c0,0,0,0,0,0c0.1-0.5,1.9-12.8-3.9-18.3
			c-2.5-2.4-5.7-3.8-9.1-5.3c-5.3-2.4-10.7-4.8-14.9-11c-7.1-10.6,4.4-21.8,6.5-23.7c-0.5,2.1-1.6,9.1,3.7,15.8
			c2.6,3.2,8.5,5.7,12.6,8.3c2.7,1.7,4.3,2.9,6.8,4.9c-1.7-3.6-4.3-7.6-7-11.9C31.5,49.1,26,40.6,23,30.7C21.3,25,21.9,19.7,24.8,15
			C30.8,5.1,45.2,0.8,48.3,0C46,2.2,37.7,11.2,40.2,24.7c1.1,6.1,5.6,12.4,10.4,19.2c6.4,9,13,18.4,12.9,28.6
			C63.4,85.5,42.1,97.7,41.9,97.8z"/>
		<path opacity="0.95" fill="#034E79" d="M74.9,29.4c-1.3,2.7-3,5.3-6,7.6c-2.2,1.8-5.2,2.1-7.8,2c-2.6-0.1-7-0.9-9.3-5.2
			c-2.6-4.8-2.1-10.2,1.2-14.5C61.2,9,55.2,1.6,53.9,0c2,0.6,18.3,5.5,22,16.4C77.2,20.2,77.1,25,74.9,29.4z"/>
	</g>
	<g id="TEXTO_PURO" opacity="0.95">
		<path fill="#034E79" d="M1.2,112.6c0-0.4,0-0.5,0-0.6c0-0.4,0.9-0.4,1-0.4c0.1,0,0.5,0.1,0.5,1.4c0,0,0,0.1,0,0.2
			c0.8-1.3,1.8-1.9,3-1.9c1.3,0,3.4,0.7,3.4,3.8c0,3.4-1.8,5.9-4.6,5.9c-1.2,0-2.1-0.6-2.5-1l-0.4,4.2c0,0.3-0.3,0.4-0.8,0.4H0.7
			c-0.5,0-0.7-0.2-0.7-0.4C0,124.3,1.2,113.4,1.2,112.6z M2.4,115.6c-0.1,1-0.2,2.1-0.3,3.3c0.3,0.3,1,0.8,2.1,0.8
			c2.6,0,3.2-2.3,3.2-4.5c0-2-1-2.6-2.2-2.6C4.4,112.6,3.2,113.2,2.4,115.6z"/>
		<path fill="#034E79" d="M18.3,118.9c0,0.7,0.4,0.7,0.7,0.7c0.2,0,0.4-0.1,0.5-0.1c0.1,0,0.1,0,0.1,0.1c0,0,0,0.3-0.1,0.7
			c-0.1,0.5-0.8,0.6-1.1,0.6c-1,0-1.6-0.5-1.6-1.8V119c-1,1.4-2.1,2-3.3,2c-1.8,0-2.4-1-2.4-2.4c0-0.2,0.7-6.9,0.7-6.9
			c0-0.3,0.3-0.4,0.8-0.4h0.1c0.5,0,0.7,0.1,0.7,0.4c0,0-0.7,6.3-0.7,6.5c0,0.9,0.5,1.4,1.4,1.4c0.8,0,2.1-0.6,2.9-3.1
			c0.2-2.3,0.5-4.8,0.5-4.8c0-0.3,0.3-0.4,0.8-0.4h0.1c0.5,0,0.7,0.1,0.7,0.4C19,111.7,18.3,118.4,18.3,118.9z"/>
		<path fill="#034E79" d="M22.1,120.9L22.1,120.9c-0.6,0-0.8-0.2-0.8-0.4c0,0,0.8-7.1,0.8-8c0-0.4,0-0.5,0-0.6c0-0.4,0.9-0.4,1-0.4
			c0.1,0,0.5,0.1,0.5,1.4c0,0,0,0.1,0,0.2c0.6-1.1,1.5-1.8,2.4-1.8c0.4,0,0.9,0.1,0.9,0.7c0,0.5-0.3,1-0.5,1c-0.1,0-0.2-0.2-0.7-0.2
			c-0.7,0-1.7,0.6-2.3,2.9c-0.2,2.3-0.5,4.9-0.5,4.9C22.9,120.8,22.6,120.9,22.1,120.9z"/>
		<path fill="#034E79" d="M32.6,111.2c2.4,0,3.7,1.4,3.7,4c0,3.8-1.8,5.8-4.7,5.8c-2.5,0-3.8-1.4-3.8-3.9
			C27.7,114,29.1,111.2,32.6,111.2z M34.7,115.2c0-1.8-0.7-2.7-2.3-2.7c-2,0-3,1.7-3,4.5c0,1.8,0.7,2.7,2.3,2.7
			C33.6,119.7,34.7,118.1,34.7,115.2z"/>
		<path fill="#034E79" d="M42.5,119c0.2,0,0.9,0.7,2.2,0.7c1.1,0,2-0.6,2-1.6c0-2.3-4-1.1-4-4.1c0-1.6,1.4-2.7,3.3-2.7
			c0.8,0,2.3,0.2,2.3,0.9c0,0.2-0.4,0.9-0.7,0.9c-0.1,0-0.7-0.4-1.6-0.4c-1.1,0-1.7,0.5-1.7,1.2c0,1.7,3.9,0.9,3.9,4
			c0,1.9-1.4,3.2-3.5,3.2c-0.7,0-2.6-0.3-2.6-1C42.2,119.2,42.4,119,42.5,119z"/>
		<path fill="#034E79" d="M57.2,118.8c0.1,0,0.1,0,0.1,0.2c0,0.1,0,0.4-0.1,0.8c-0.2,0.9-2.2,1.2-3,1.2c-1.8,0-4.1-0.5-4.1-3.8
			c0-3.3,1.4-6,5-6c2.3,0,3.1,1.5,3.1,2.4c0,2.5-2.4,3.3-4.9,3.3c-0.7,0-1.2-0.1-1.6-0.1v0.2c0,2,1.1,2.6,2.7,2.6
			C56,119.7,56.9,118.8,57.2,118.8z M51.8,115.7h1.3c0.5,0,3.5,0,3.5-1.9c0-0.7-0.6-1.3-1.6-1.3C52.8,112.6,52,114,51.8,115.7z"/>
		<path fill="#034E79" d="M67.8,119.7c0.2,0,0.4-0.1,0.5-0.1c0.1,0,0.1,0,0.1,0.1c0,0,0,0.3-0.1,0.7c-0.1,0.5-0.8,0.6-1.1,0.6
			c-1,0-1.6-0.5-1.6-1.8c0-0.6,0.5-4.9,0.5-5.2c0-0.9-0.5-1.4-1.4-1.4c-0.8,0-2.1,0.6-2.9,2.9c-0.2,2.4-0.5,5-0.5,5
			c0,0.3-0.3,0.4-0.8,0.4h-0.1c-0.5,0-0.7-0.2-0.7-0.4c0,0,0.8-7.1,0.8-8c0-0.4,0-0.5,0-0.6c0-0.4,0.9-0.4,1-0.4
			c0.1,0,0.5,0.1,0.5,1.4c0,0,0,0.1,0,0.2c1-1.3,2.1-1.8,3.3-1.8c1.8,0,2.4,1,2.4,2.4c0,0.3-0.5,4.9-0.5,5.3
			C67.2,119.7,67.5,119.7,67.8,119.7z"/>
		<path fill="#034E79" d="M71.8,109.4c0-0.3,0.3-0.4,0.7-0.4h0.1c0.5,0,0.7,0.1,0.7,0.4l-0.2,1.9h1.5c0.2,0,0.3,0.1,0.3,0.3
			c0,0.1-0.1,1-0.8,1H73c0,0-0.6,5.6-0.6,6c0,0.8,0.4,1,0.9,1c0.6,0,0.7-0.1,0.8-0.1c0.1,0,0.1,0,0.1,0.2c0,0,0,0.4-0.1,0.7
			c-0.1,0.5-0.7,0.6-1.2,0.6c-0.8,0-2-0.3-2-2c0-0.5,0.6-6.3,0.6-6.3h-0.9c-0.3,0-0.3-0.2-0.3-0.5c0-0.2,0-0.8,0.5-0.8h0.9
			L71.8,109.4z"/>
		<path fill="#034E79" d="M78.9,119.7c0.2,0,0.4-0.1,0.5-0.1c0.1,0,0.1,0,0.1,0.1c0,0,0,0.3-0.1,0.7c-0.1,0.5-0.8,0.6-1.1,0.6
			c-1,0-1.6-0.5-1.6-1.7c0-0.7,0.7-7.5,0.7-7.5c0-0.3,0.3-0.4,0.8-0.4h0.1c0.5,0,0.7,0.1,0.7,0.4c0,0-0.7,6.7-0.7,7.2
			C78.2,119.7,78.6,119.7,78.9,119.7z M77.8,107.6c0-0.3,0.3-0.4,0.8-0.4h0.2c0.5,0,0.7,0.1,0.7,0.4l-0.1,1.1c0,0.2-0.2,0.4-0.7,0.4
			h-0.2c-0.5,0-0.8-0.1-0.8-0.4L77.8,107.6z"/>
		<path fill="#034E79" d="M89.4,107.2L89.4,107.2c0.6,0,0.8,0.1,0.8,0.4c0,0-1.2,10.8-1.2,11.3c0,0.7,0.4,0.7,0.7,0.7
			c0.2,0,0.4-0.1,0.5-0.1c0.1,0,0.1,0,0.1,0.1c0,0,0,0.3-0.1,0.7c-0.1,0.5-0.8,0.6-1.1,0.6c-1,0-1.6-0.5-1.6-1.8V119
			c-0.8,1.4-1.8,2-2.9,2c-1.3,0-3.4-0.8-3.4-3.9c0-3.4,1.8-5.8,4.6-5.8c1.3,0,2,0.4,2.5,0.8c0.3-2.6,0.5-4.5,0.5-4.5
			C88.7,107.3,89,107.2,89.4,107.2z M88.1,113.3c-0.4-0.3-1-0.7-2.1-0.7c-2.5,0-3.2,2.2-3.2,4.4c0,2.1,0.8,2.7,2.2,2.7
			c0.8,0,2-0.7,2.8-3L88.1,113.3z"/>
		<path fill="#034E79" d="M96.3,111.2c2.4,0,3.7,1.4,3.7,4c0,3.8-1.8,5.8-4.7,5.8c-2.5,0-3.8-1.4-3.8-3.9
			C91.5,114,92.9,111.2,96.3,111.2z M98.4,115.2c0-1.8-0.7-2.7-2.3-2.7c-2,0-3.1,1.7-3.1,4.5c0,1.8,0.8,2.7,2.3,2.7
			C97.3,119.7,98.4,118.1,98.4,115.2z"/>
	</g>
</g>
</svg>
