<?xml version="1.0" encoding="utf-8"?>
<!-- Generator: Adobe Illustrator 18.1.1, SVG Export Plug-In . SVG Version: 6.00 Build 0)  -->
<svg version="1.1" id="Layer_1" xmlns="http://www.w3.org/2000/svg" xmlns:xlink="http://www.w3.org/1999/xlink" x="0px" y="0px"
	 viewBox="0 0 405 230" enable-background="new 0 0 405 230" xml:space="preserve">
<g>
	<g>
		<g>
			<defs>
				<rect id="SVGID_1_" x="15.9" y="63.5" width="188.6" height="19.1"/>
			</defs>
			<clipPath id="SVGID_2_">
				<use xlink:href="#SVGID_1_"  overflow="visible"/>
			</clipPath>
			<g clip-path="url(#SVGID_2_)">
				<g>
					
						<rect x="-77.1" y="10.8" transform="matrix(0.9466 0.3224 -0.3224 0.9466 39.3573 31.888)" fill="#FFFFFF" width="1" height="248"/>
				</g>
				<g>
					
						<rect x="-71.1" y="10.8" transform="matrix(0.9466 0.3224 -0.3224 0.9466 39.6751 29.9689)" fill="#FFFFFF" width="1" height="248"/>
				</g>
				<g>
					
						<rect x="-65.2" y="10.8" transform="matrix(0.9466 0.3224 -0.3224 0.9466 39.9929 28.0498)" fill="#FFFFFF" width="1" height="248"/>
				</g>
				<g>
					
						<rect x="-59.2" y="10.8" transform="matrix(0.9466 0.3224 -0.3224 0.9466 40.3108 26.1305)" fill="#FFFFFF" width="1" height="248"/>
				</g>
				<g>
					
						<rect x="-53.3" y="10.8" transform="matrix(0.9466 0.3224 -0.3224 0.9466 40.6286 24.2114)" fill="#FFFFFF" width="1" height="248"/>
				</g>
				<g>
					
						<rect x="-47.3" y="10.8" transform="matrix(0.9466 0.3224 -0.3224 0.9466 40.9464 22.2924)" fill="#FFFFFF" width="1" height="248"/>
				</g>
				<g>
					
						<rect x="-41.4" y="10.8" transform="matrix(0.9466 0.3224 -0.3224 0.9466 41.2642 20.3731)" fill="#FFFFFF" width="1" height="248"/>
				</g>
				<g>
					
						<rect x="-35.4" y="10.8" transform="matrix(0.9466 0.3224 -0.3224 0.9466 41.5821 18.4539)" fill="#FFFFFF" width="1" height="248"/>
				</g>
				<g>
					
						<rect x="-29.5" y="10.8" transform="matrix(0.9466 0.3224 -0.3224 0.9466 41.8998 16.535)" fill="#FFFFFF" width="1" height="248"/>
				</g>
				<g>
					
						<rect x="-23.5" y="10.8" transform="matrix(0.9466 0.3224 -0.3224 0.9466 42.2177 14.6156)" fill="#FFFFFF" width="1" height="248"/>
				</g>
				<g>
					
						<rect x="-17.5" y="10.8" transform="matrix(0.9466 0.3224 -0.3224 0.9466 42.5355 12.6966)" fill="#FFFFFF" width="1" height="248"/>
				</g>
				<g>
					
						<rect x="-11.6" y="10.8" transform="matrix(0.9466 0.3224 -0.3224 0.9466 42.8533 10.7778)" fill="#FFFFFF" width="1" height="248"/>
				</g>
				<g>
					
						<rect x="-5.6" y="10.8" transform="matrix(0.9466 0.3224 -0.3224 0.9466 43.1711 8.8586)" fill="#FFFFFF" width="1" height="248"/>
				</g>
				<g>
					
						<rect x="0.3" y="10.8" transform="matrix(0.9466 0.3224 -0.3224 0.9466 43.489 6.9394)" fill="#FFFFFF" width="1" height="248"/>
				</g>
				<g>
					
						<rect x="6.3" y="10.8" transform="matrix(0.9466 0.3224 -0.3224 0.9466 43.8068 5.02)" fill="#FFFFFF" width="1" height="248"/>
				</g>
				<g>
					
						<rect x="12.2" y="10.8" transform="matrix(0.9466 0.3224 -0.3224 0.9466 44.1246 3.101)" fill="#FFFFFF" width="1" height="248"/>
				</g>
				<g>
					
						<rect x="18.2" y="10.8" transform="matrix(0.9466 0.3224 -0.3224 0.9466 44.4424 1.1822)" fill="#FFFFFF" width="1" height="248"/>
				</g>
				<g>
					
						<rect x="24.1" y="10.8" transform="matrix(0.9466 0.3224 -0.3224 0.9466 44.7603 -0.7371)" fill="#FFFFFF" width="1" height="248"/>
				</g>
				<g>
					
						<rect x="30.1" y="10.8" transform="matrix(0.9466 0.3224 -0.3224 0.9466 45.0781 -2.6563)" fill="#FFFFFF" width="1" height="248"/>
				</g>
				<g>
					
						<rect x="36" y="10.8" transform="matrix(0.9466 0.3224 -0.3224 0.9466 45.3959 -4.5754)" fill="#FFFFFF" width="1" height="248"/>
				</g>
				<g>
					
						<rect x="42" y="10.8" transform="matrix(0.9466 0.3224 -0.3224 0.9466 45.7137 -6.4943)" fill="#FFFFFF" width="1" height="248"/>
				</g>
				<g>
					
						<rect x="47.9" y="10.8" transform="matrix(0.9466 0.3224 -0.3224 0.9466 46.0316 -8.414)" fill="#FFFFFF" width="1" height="248"/>
				</g>
				<g>
					
						<rect x="53.9" y="10.8" transform="matrix(0.9466 0.3224 -0.3224 0.9466 46.3494 -10.3327)" fill="#FFFFFF" width="1" height="248"/>
				</g>
				<g>
					
						<rect x="59.8" y="10.8" transform="matrix(0.9466 0.3224 -0.3224 0.9466 46.6672 -12.2519)" fill="#FFFFFF" width="1" height="248"/>
				</g>
				<g>
					
						<rect x="65.8" y="10.8" transform="matrix(0.9466 0.3224 -0.3224 0.9466 46.985 -14.1711)" fill="#FFFFFF" width="1" height="248"/>
				</g>
				<g>
					
						<rect x="71.8" y="10.8" transform="matrix(0.9466 0.3224 -0.3224 0.9466 47.3029 -16.0905)" fill="#FFFFFF" width="1" height="248"/>
				</g>
				<g>
					
						<rect x="77.7" y="10.8" transform="matrix(0.9466 0.3224 -0.3224 0.9466 47.6207 -18.0094)" fill="#FFFFFF" width="1" height="248"/>
				</g>
				<g>
					
						<rect x="83.7" y="10.8" transform="matrix(0.9466 0.3224 -0.3224 0.9466 47.9385 -19.9283)" fill="#FFFFFF" width="1" height="248"/>
				</g>
				<g>
					
						<rect x="89.6" y="10.8" transform="matrix(0.9466 0.3224 -0.3224 0.9466 48.2563 -21.8472)" fill="#FFFFFF" width="1" height="248"/>
				</g>
				<g>
					
						<rect x="95.6" y="10.8" transform="matrix(0.9466 0.3224 -0.3224 0.9466 48.5742 -23.7667)" fill="#FFFFFF" width="1" height="248"/>
				</g>
				<g>
					
						<rect x="101.5" y="10.8" transform="matrix(0.9466 0.3224 -0.3224 0.9466 48.892 -25.6859)" fill="#FFFFFF" width="1" height="248"/>
				</g>
				<g>
					
						<rect x="107.5" y="10.8" transform="matrix(0.9466 0.3224 -0.3224 0.9466 49.2098 -27.6049)" fill="#FFFFFF" width="1" height="248"/>
				</g>
				<g>
					
						<rect x="113.4" y="10.8" transform="matrix(0.9466 0.3224 -0.3224 0.9466 49.5276 -29.524)" fill="#FFFFFF" width="1" height="248"/>
				</g>
				<g>
					
						<rect x="119.4" y="10.8" transform="matrix(0.9466 0.3224 -0.3224 0.9466 49.8454 -31.443)" fill="#FFFFFF" width="1" height="248"/>
				</g>
				<g>
					
						<rect x="125.3" y="10.8" transform="matrix(0.9466 0.3224 -0.3224 0.9466 50.1633 -33.3623)" fill="#FFFFFF" width="1" height="248"/>
				</g>
				<g>
					
						<rect x="131.3" y="10.8" transform="matrix(0.9466 0.3224 -0.3224 0.9466 50.4811 -35.2815)" fill="#FFFFFF" width="1" height="248"/>
				</g>
				<g>
					
						<rect x="137.2" y="10.8" transform="matrix(0.9466 0.3224 -0.3224 0.9466 50.7989 -37.2007)" fill="#FFFFFF" width="1" height="248"/>
				</g>
				<g>
					
						<rect x="143.2" y="10.8" transform="matrix(0.9466 0.3224 -0.3224 0.9466 51.1167 -39.1196)" fill="#FFFFFF" width="1" height="248"/>
				</g>
				<g>
					
						<rect x="149.1" y="10.8" transform="matrix(0.9466 0.3224 -0.3224 0.9466 51.4345 -41.0386)" fill="#FFFFFF" width="1" height="248"/>
				</g>
				<g>
					
						<rect x="155.1" y="10.8" transform="matrix(0.9466 0.3224 -0.3224 0.9466 51.7524 -42.9577)" fill="#FFFFFF" width="1" height="248"/>
				</g>
				<g>
					
						<rect x="161" y="10.8" transform="matrix(0.9466 0.3224 -0.3224 0.9466 52.0702 -44.877)" fill="#FFFFFF" width="1" height="248"/>
				</g>
				<g>
					
						<rect x="167" y="10.8" transform="matrix(0.9466 0.3224 -0.3224 0.9466 52.3881 -46.7963)" fill="#FFFFFF" width="1" height="248"/>
				</g>
				<g>
					
						<rect x="173" y="10.8" transform="matrix(0.9466 0.3224 -0.3224 0.9466 52.7058 -48.7152)" fill="#FFFFFF" width="1" height="248"/>
				</g>
				<g>
					
						<rect x="178.9" y="10.8" transform="matrix(0.9466 0.3224 -0.3224 0.9466 53.0236 -50.6342)" fill="#FFFFFF" width="1" height="248"/>
				</g>
				<g>
					
						<rect x="184.9" y="10.8" transform="matrix(0.9466 0.3224 -0.3224 0.9466 53.3415 -52.5535)" fill="#FFFFFF" width="1" height="248"/>
				</g>
				<g>
					
						<rect x="190.8" y="10.8" transform="matrix(0.9466 0.3224 -0.3224 0.9466 53.6593 -54.4726)" fill="#FFFFFF" width="1" height="248"/>
				</g>
				<g>
					
						<rect x="196.8" y="10.8" transform="matrix(0.9466 0.3224 -0.3224 0.9466 53.9771 -56.3917)" fill="#FFFFFF" width="1" height="248"/>
				</g>
				<g>
					
						<rect x="202.7" y="10.8" transform="matrix(0.9466 0.3224 -0.3224 0.9466 54.2949 -58.3107)" fill="#FFFFFF" width="1" height="248"/>
				</g>
				<g>
					
						<rect x="208.7" y="10.8" transform="matrix(0.9466 0.3224 -0.3224 0.9466 54.6128 -60.2301)" fill="#FFFFFF" width="1" height="248"/>
				</g>
				<g>
					
						<rect x="214.6" y="10.8" transform="matrix(0.9466 0.3224 -0.3224 0.9466 54.9306 -62.1489)" fill="#FFFFFF" width="1" height="248"/>
				</g>
				<g>
					
						<rect x="220.6" y="10.8" transform="matrix(0.9466 0.3224 -0.3224 0.9466 55.2485 -64.0684)" fill="#FFFFFF" width="1" height="248"/>
				</g>
				<g>
					
						<rect x="226.5" y="10.8" transform="matrix(0.9466 0.3224 -0.3224 0.9466 55.5663 -65.9875)" fill="#FFFFFF" width="1" height="248"/>
				</g>
			</g>
		</g>
		<g>
			<rect x="2.5" y="96.6" fill="#F1F1F2" width="97.3" height="2.9"/>
		</g>
		<g>
			<g>
				<path fill="#FFFFFF" d="M69.3,120.2c0-6.4,2.7-10.3,6.5-10.3c3,0,4.7,2.4,4.7,6.6c0,6.4-2.8,10.2-6.5,10.2
					C71.1,126.8,69.3,124.4,69.3,120.2z M77.1,116.2c0-2.3-0.5-3.5-1.6-3.5c-1.4,0-2.7,2.7-2.7,7.9c0,2.3,0.5,3.5,1.6,3.5
					C75.7,124,77.1,121.3,77.1,116.2z"/>
			</g>
			<g>
				<path fill="#FFFFFF" d="M82.7,112c0-1.1,0.2-1.9,0.9-1.9h9.2c0.2,0,0.5,1.1,0.5,1.9c0,0.2,0,0.4-0.1,0.5l-7.4,13.6
					c-0.2,0.4-0.7,0.5-1.4,0.5h-1c-0.6,0-1.3,0-1.3-0.4c0-0.1,0-0.3,0.2-0.4l7.1-12.9h-6.1C82.9,112.9,82.7,112.6,82.7,112z"/>
			</g>
		</g>
	</g>
	<g>
		<defs>
			<path id="SVGID_3_" d="M302,0.8c64.7,0,100.5,40.5,100.5,114.2c0,73.7-35.8,114.2-100.5,114.2c-64.7,0-100.9-40.5-100.9-114.2
				C201.1,41.3,237.2,0.8,302,0.8z M352.9,115c0-46.9-17.3-72.1-50.9-72.1c-33.6,0-51.2,25.2-51.2,72.1s17.6,72.4,51.2,72.4
				C335.6,187.4,352.9,161.9,352.9,115z"/>
		</defs>
		<clipPath id="SVGID_4_">
			<use xlink:href="#SVGID_3_"  overflow="visible"/>
		</clipPath>
		<g clip-path="url(#SVGID_4_)">
			<defs>
				<rect id="SVGID_5_" x="-114.3" y="-23" width="781.2" height="211.7"/>
			</defs>
			<clipPath id="SVGID_6_">
				<use xlink:href="#SVGID_5_"  overflow="visible"/>
			</clipPath>
			<g clip-path="url(#SVGID_6_)">
				<g>
					
						<rect x="-185.5" y="-139.5" transform="matrix(0.9466 0.3224 -0.3224 0.9466 33.4656 66.818)" fill="#FFFFFF" width="1" height="547.8"/>
				</g>
				<g>
					
						<rect x="-172.3" y="-139.5" transform="matrix(0.9466 0.3224 -0.3224 0.9466 34.1675 62.5796)" fill="#FFFFFF" width="1" height="547.8"/>
				</g>
				<g>
					
						<rect x="-159.2" y="-139.5" transform="matrix(0.9466 0.3224 -0.3224 0.9466 34.8695 58.3407)" fill="#FFFFFF" width="1" height="547.8"/>
				</g>
				<g>
					
						<rect x="-146" y="-139.5" transform="matrix(0.9466 0.3224 -0.3224 0.9466 35.5716 54.1014)" fill="#FFFFFF" width="1" height="547.8"/>
				</g>
				<g>
					
						<rect x="-132.9" y="-139.5" transform="matrix(0.9466 0.3224 -0.3224 0.9466 36.2736 49.8623)" fill="#FFFFFF" width="1" height="547.8"/>
				</g>
				<g>
					
						<rect x="-119.7" y="-139.5" transform="matrix(0.9466 0.3224 -0.3224 0.9466 36.9756 45.6237)" fill="#FFFFFF" width="1" height="547.8"/>
				</g>
				<g>
					
						<rect x="-106.6" y="-139.5" transform="matrix(0.9466 0.3224 -0.3224 0.9466 37.6775 41.3855)" fill="#FFFFFF" width="1" height="547.8"/>
				</g>
				<g>
					
						<rect x="-93.4" y="-139.5" transform="matrix(0.9466 0.3224 -0.3224 0.9466 38.3796 37.146)" fill="#FFFFFF" width="1" height="547.8"/>
				</g>
				<g>
					
						<rect x="-80.3" y="-139.5" transform="matrix(0.9466 0.3224 -0.3224 0.9466 39.0815 32.9075)" fill="#FFFFFF" width="1" height="547.8"/>
				</g>
				<g>
					
						<rect x="-67.1" y="-139.5" transform="matrix(0.9466 0.3224 -0.3224 0.9466 39.7835 28.6685)" fill="#FFFFFF" width="1" height="547.8"/>
				</g>
				<g>
					
						<rect x="-54" y="-139.5" transform="matrix(0.9466 0.3224 -0.3224 0.9466 40.4854 24.4299)" fill="#FFFFFF" width="1" height="547.8"/>
				</g>
				<g>
					
						<rect x="-40.8" y="-139.5" transform="matrix(0.9466 0.3224 -0.3224 0.9466 41.1874 20.1915)" fill="#FFFFFF" width="1" height="547.8"/>
				</g>
				<g>
					
						<rect x="-27.7" y="-139.5" transform="matrix(0.9466 0.3224 -0.3224 0.9466 41.8894 15.9523)" fill="#FFFFFF" width="1" height="547.8"/>
				</g>
				<g>
					
						<rect x="-14.5" y="-139.5" transform="matrix(0.9466 0.3224 -0.3224 0.9466 42.5914 11.7134)" fill="#FFFFFF" width="1" height="547.8"/>
				</g>
				<g>
					
						<rect x="-1.4" y="-139.5" transform="matrix(0.9466 0.3224 -0.3224 0.9466 43.2934 7.4745)" fill="#FFFFFF" width="1" height="547.8"/>
				</g>
				<g>
					
						<rect x="11.7" y="-139.5" transform="matrix(0.9466 0.3224 -0.3224 0.9466 43.9954 3.2355)" fill="#FFFFFF" width="1" height="547.8"/>
				</g>
				<g>
					
						<rect x="24.9" y="-139.5" transform="matrix(0.9466 0.3224 -0.3224 0.9466 44.6973 -1.0029)" fill="#FFFFFF" width="1" height="547.8"/>
				</g>
				<g>
					
						<rect x="38" y="-139.5" transform="matrix(0.9466 0.3224 -0.3224 0.9466 45.3994 -5.242)" fill="#FFFFFF" width="1" height="547.8"/>
				</g>
				<g>
					
						<rect x="51.2" y="-139.5" transform="matrix(0.9466 0.3224 -0.3224 0.9466 46.1013 -9.4807)" fill="#FFFFFF" width="1" height="547.8"/>
				</g>
				<g>
					
						<rect x="64.3" y="-139.5" transform="matrix(0.9466 0.3224 -0.3224 0.9466 46.8033 -13.7193)" fill="#FFFFFF" width="1" height="547.8"/>
				</g>
				<g>
					
						<rect x="77.5" y="-139.5" transform="matrix(0.9466 0.3224 -0.3224 0.9466 47.5052 -17.9578)" fill="#FFFFFF" width="1" height="547.8"/>
				</g>
				<g>
					
						<rect x="90.6" y="-139.5" transform="matrix(0.9466 0.3224 -0.3224 0.9466 48.2073 -22.1973)" fill="#FFFFFF" width="1" height="547.8"/>
				</g>
				<g>
					
						<rect x="103.8" y="-139.5" transform="matrix(0.9466 0.3224 -0.3224 0.9466 48.9092 -26.4358)" fill="#FFFFFF" width="1" height="547.8"/>
				</g>
				<g>
					
						<rect x="116.9" y="-139.5" transform="matrix(0.9466 0.3224 -0.3224 0.9466 49.6112 -30.6745)" fill="#FFFFFF" width="1" height="547.8"/>
				</g>
				<g>
					
						<rect x="130.1" y="-139.5" transform="matrix(0.9466 0.3224 -0.3224 0.9466 50.3132 -34.9135)" fill="#FFFFFF" width="1" height="547.8"/>
				</g>
				<g>
					
						<rect x="143.2" y="-139.5" transform="matrix(0.9466 0.3224 -0.3224 0.9466 51.0152 -39.1524)" fill="#FFFFFF" width="1" height="547.8"/>
				</g>
				<g>
					
						<rect x="156.4" y="-139.5" transform="matrix(0.9466 0.3224 -0.3224 0.9466 51.7172 -43.3914)" fill="#FFFFFF" width="1" height="547.8"/>
				</g>
				<g>
					
						<rect x="169.5" y="-139.5" transform="matrix(0.9466 0.3224 -0.3224 0.9466 52.4192 -47.63)" fill="#FFFFFF" width="1" height="547.8"/>
				</g>
				<g>
					
						<rect x="182.7" y="-139.5" transform="matrix(0.9466 0.3224 -0.3224 0.9466 53.1211 -51.8682)" fill="#FFFFFF" width="1" height="547.8"/>
				</g>
				<g>
					
						<rect x="195.8" y="-139.5" transform="matrix(0.9466 0.3224 -0.3224 0.9466 53.8232 -56.1076)" fill="#FFFFFF" width="1" height="547.8"/>
				</g>
				<g>
					
						<rect x="209" y="-139.5" transform="matrix(0.9466 0.3224 -0.3224 0.9466 54.5252 -60.3467)" fill="#FFFFFF" width="1" height="547.8"/>
				</g>
				<g>
					
						<rect x="222.1" y="-139.5" transform="matrix(0.9466 0.3224 -0.3224 0.9466 55.2272 -64.5856)" fill="#FFFFFF" width="1" height="547.8"/>
				</g>
				<g>
					
						<rect x="235.3" y="-139.5" transform="matrix(0.9466 0.3224 -0.3224 0.9466 55.9291 -68.824)" fill="#FFFFFF" width="1" height="547.8"/>
				</g>
				<g>
					
						<rect x="248.4" y="-139.5" transform="matrix(0.9466 0.3224 -0.3224 0.9466 56.631 -73.0624)" fill="#FFFFFF" width="1" height="547.8"/>
				</g>
				<g>
					
						<rect x="261.6" y="-139.5" transform="matrix(0.9466 0.3224 -0.3224 0.9466 57.333 -77.3015)" fill="#FFFFFF" width="1" height="547.8"/>
				</g>
				<g>
					
						<rect x="274.7" y="-139.5" transform="matrix(0.9466 0.3224 -0.3224 0.9466 58.0351 -81.5406)" fill="#FFFFFF" width="1" height="547.8"/>
				</g>
				<g>
					
						<rect x="287.9" y="-139.5" transform="matrix(0.9467 0.3221 -0.3221 0.9467 58.6677 -85.707)" fill="#FFFFFF" width="1" height="547.8"/>
				</g>
				<g>
					
						<rect x="301" y="-139.5" transform="matrix(0.9467 0.3221 -0.3221 0.9467 59.3684 -89.9416)" fill="#FFFFFF" width="1" height="547.8"/>
				</g>
				<g>
					
						<rect x="314.2" y="-139.5" transform="matrix(0.9467 0.3221 -0.3221 0.9467 60.069 -94.1765)" fill="#FFFFFF" width="1" height="547.8"/>
				</g>
				<g>
					
						<rect x="327.3" y="-139.5" transform="matrix(0.9467 0.3221 -0.3221 0.9467 60.7697 -98.4114)" fill="#FFFFFF" width="1" height="547.8"/>
				</g>
				<g>
					
						<rect x="340.5" y="-139.5" transform="matrix(0.9467 0.3221 -0.3221 0.9467 61.4703 -102.6464)" fill="#FFFFFF" width="1" height="547.8"/>
				</g>
				<g>
					
						<rect x="353.6" y="-139.5" transform="matrix(0.9467 0.3221 -0.3221 0.9467 62.171 -106.8817)" fill="#FFFFFF" width="1" height="547.8"/>
				</g>
				<g>
					
						<rect x="366.8" y="-139.5" transform="matrix(0.9467 0.3221 -0.3221 0.9467 62.8717 -111.1165)" fill="#FFFFFF" width="1" height="547.8"/>
				</g>
				<g>
					
						<rect x="379.9" y="-139.5" transform="matrix(0.9467 0.3221 -0.3221 0.9467 63.5723 -115.3513)" fill="#FFFFFF" width="1" height="547.8"/>
				</g>
				<g>
					
						<rect x="393.1" y="-139.5" transform="matrix(0.9467 0.3221 -0.3221 0.9467 64.2729 -119.5861)" fill="#FFFFFF" width="1" height="547.8"/>
				</g>
				<g>
					
						<rect x="406.2" y="-139.5" transform="matrix(0.9467 0.3221 -0.3221 0.9467 64.9736 -123.8208)" fill="#FFFFFF" width="1" height="547.8"/>
				</g>
				<g>
					
						<rect x="419.4" y="-139.5" transform="matrix(0.9467 0.3221 -0.3221 0.9467 65.6742 -128.0557)" fill="#FFFFFF" width="1" height="547.8"/>
				</g>
				<g>
					
						<rect x="432.5" y="-139.5" transform="matrix(0.9467 0.3221 -0.3221 0.9467 66.3749 -132.2908)" fill="#FFFFFF" width="1" height="547.8"/>
				</g>
				<g>
					
						<rect x="445.7" y="-139.5" transform="matrix(0.9467 0.3221 -0.3221 0.9467 67.0755 -136.5257)" fill="#FFFFFF" width="1" height="547.8"/>
				</g>
				<g>
					
						<rect x="458.8" y="-139.5" transform="matrix(0.9467 0.3221 -0.3221 0.9467 67.7762 -140.7603)" fill="#FFFFFF" width="1" height="547.8"/>
				</g>
				<g>
					
						<rect x="472" y="-139.5" transform="matrix(0.9467 0.3221 -0.3221 0.9467 68.4769 -144.9958)" fill="#FFFFFF" width="1" height="547.8"/>
				</g>
				<g>
					
						<rect x="485.1" y="-139.5" transform="matrix(0.9467 0.3221 -0.3221 0.9467 69.1774 -149.23)" fill="#FFFFFF" width="1" height="547.8"/>
				</g>
			</g>
		</g>
	</g>
</g>
</svg>
