<?xml version="1.0" encoding="utf-8"?>
<!-- Generator: Adobe Illustrator 18.1.1, SVG Export Plug-In . SVG Version: 6.00 Build 0)  -->
<svg version="1.1" id="Layer_1" xmlns="http://www.w3.org/2000/svg" xmlns:xlink="http://www.w3.org/1999/xlink" x="0px" y="0px"
	 viewBox="0 0 400 228" enable-background="new 0 0 400 228" xml:space="preserve">
<g>
	<g>
		<g>
			<defs>
				<rect id="SVGID_3_" x="13.7" y="62.6" width="188.3" height="19.1"/>
			</defs>
			<clipPath id="SVGID_4_">
				<use xlink:href="#SVGID_3_"  overflow="visible"/>
			</clipPath>
			<g clip-path="url(#SVGID_4_)">
				<line fill="none" stroke="#FFFFFF" stroke-miterlimit="10" x1="-38.6" y1="16.6" x2="-118.6" y2="250.9"/>
				<line fill="none" stroke="#FFFFFF" stroke-miterlimit="10" x1="-32.7" y1="16.6" x2="-112.7" y2="250.9"/>
				<line fill="none" stroke="#FFFFFF" stroke-miterlimit="10" x1="-26.7" y1="16.6" x2="-106.7" y2="250.9"/>
				<line fill="none" stroke="#FFFFFF" stroke-miterlimit="10" x1="-20.8" y1="16.6" x2="-100.8" y2="250.9"/>
				<line fill="none" stroke="#FFFFFF" stroke-miterlimit="10" x1="-14.9" y1="16.6" x2="-94.8" y2="250.9"/>
				<line fill="none" stroke="#FFFFFF" stroke-miterlimit="10" x1="-8.9" y1="16.6" x2="-88.9" y2="250.9"/>
				<line fill="none" stroke="#FFFFFF" stroke-miterlimit="10" x1="-3" y1="16.6" x2="-82.9" y2="250.9"/>
				<line fill="none" stroke="#FFFFFF" stroke-miterlimit="10" x1="3" y1="16.6" x2="-77" y2="250.9"/>
				<line fill="none" stroke="#FFFFFF" stroke-miterlimit="10" x1="8.9" y1="16.6" x2="-71.1" y2="250.9"/>
				<line fill="none" stroke="#FFFFFF" stroke-miterlimit="10" x1="14.9" y1="16.6" x2="-65.1" y2="250.9"/>
				<line fill="none" stroke="#FFFFFF" stroke-miterlimit="10" x1="20.8" y1="16.6" x2="-59.2" y2="250.9"/>
				<line fill="none" stroke="#FFFFFF" stroke-miterlimit="10" x1="26.7" y1="16.6" x2="-53.2" y2="250.9"/>
				<line fill="none" stroke="#FFFFFF" stroke-miterlimit="10" x1="32.7" y1="16.6" x2="-47.3" y2="250.9"/>
				<line fill="none" stroke="#FFFFFF" stroke-miterlimit="10" x1="38.6" y1="16.6" x2="-41.3" y2="250.9"/>
				<line fill="none" stroke="#FFFFFF" stroke-miterlimit="10" x1="44.6" y1="16.6" x2="-35.4" y2="250.9"/>
				<line fill="none" stroke="#FFFFFF" stroke-miterlimit="10" x1="50.5" y1="16.6" x2="-29.5" y2="250.9"/>
				<line fill="none" stroke="#FFFFFF" stroke-miterlimit="10" x1="56.5" y1="16.6" x2="-23.5" y2="250.9"/>
				<line fill="none" stroke="#FFFFFF" stroke-miterlimit="10" x1="62.4" y1="16.6" x2="-17.6" y2="250.9"/>
				<line fill="none" stroke="#FFFFFF" stroke-miterlimit="10" x1="68.3" y1="16.6" x2="-11.6" y2="250.9"/>
				<line fill="none" stroke="#FFFFFF" stroke-miterlimit="10" x1="74.3" y1="16.6" x2="-5.7" y2="250.9"/>
				<line fill="none" stroke="#FFFFFF" stroke-miterlimit="10" x1="80.2" y1="16.6" x2="0.3" y2="250.9"/>
				<line fill="none" stroke="#FFFFFF" stroke-miterlimit="10" x1="86.2" y1="16.6" x2="6.2" y2="250.9"/>
				<line fill="none" stroke="#FFFFFF" stroke-miterlimit="10" x1="92.1" y1="16.6" x2="12.1" y2="250.9"/>
				<line fill="none" stroke="#FFFFFF" stroke-miterlimit="10" x1="98.1" y1="16.6" x2="18.1" y2="250.9"/>
				<line fill="none" stroke="#FFFFFF" stroke-miterlimit="10" x1="104" y1="16.6" x2="24" y2="250.9"/>
				<line fill="none" stroke="#FFFFFF" stroke-miterlimit="10" x1="109.9" y1="16.6" x2="30" y2="250.9"/>
				<line fill="none" stroke="#FFFFFF" stroke-miterlimit="10" x1="115.9" y1="16.6" x2="35.9" y2="250.9"/>
				<line fill="none" stroke="#FFFFFF" stroke-miterlimit="10" x1="121.8" y1="16.6" x2="41.9" y2="250.9"/>
				<line fill="none" stroke="#FFFFFF" stroke-miterlimit="10" x1="127.8" y1="16.6" x2="47.8" y2="250.9"/>
				<line fill="none" stroke="#FFFFFF" stroke-miterlimit="10" x1="133.7" y1="16.6" x2="53.7" y2="250.9"/>
				<line fill="none" stroke="#FFFFFF" stroke-miterlimit="10" x1="139.7" y1="16.6" x2="59.7" y2="250.9"/>
				<line fill="none" stroke="#FFFFFF" stroke-miterlimit="10" x1="145.6" y1="16.6" x2="65.6" y2="250.9"/>
				<line fill="none" stroke="#FFFFFF" stroke-miterlimit="10" x1="151.5" y1="16.6" x2="71.6" y2="250.9"/>
				<line fill="none" stroke="#FFFFFF" stroke-miterlimit="10" x1="157.5" y1="16.6" x2="77.5" y2="250.9"/>
				<line fill="none" stroke="#FFFFFF" stroke-miterlimit="10" x1="163.4" y1="16.6" x2="83.5" y2="250.9"/>
				<line fill="none" stroke="#FFFFFF" stroke-miterlimit="10" x1="169.4" y1="16.6" x2="89.4" y2="250.9"/>
				<line fill="none" stroke="#FFFFFF" stroke-miterlimit="10" x1="175.3" y1="16.6" x2="95.3" y2="250.9"/>
				<line fill="none" stroke="#FFFFFF" stroke-miterlimit="10" x1="181.3" y1="16.6" x2="101.3" y2="250.9"/>
				<line fill="none" stroke="#FFFFFF" stroke-miterlimit="10" x1="187.2" y1="16.6" x2="107.2" y2="250.9"/>
				<line fill="none" stroke="#FFFFFF" stroke-miterlimit="10" x1="193.1" y1="16.6" x2="113.2" y2="250.9"/>
				<line fill="none" stroke="#FFFFFF" stroke-miterlimit="10" x1="199.1" y1="16.6" x2="119.1" y2="250.9"/>
				<line fill="none" stroke="#FFFFFF" stroke-miterlimit="10" x1="205" y1="16.6" x2="125.1" y2="250.9"/>
				<line fill="none" stroke="#FFFFFF" stroke-miterlimit="10" x1="211" y1="16.6" x2="131" y2="250.9"/>
				<line fill="none" stroke="#FFFFFF" stroke-miterlimit="10" x1="216.9" y1="16.6" x2="136.9" y2="250.9"/>
				<line fill="none" stroke="#FFFFFF" stroke-miterlimit="10" x1="222.9" y1="16.6" x2="142.9" y2="250.9"/>
				<line fill="none" stroke="#FFFFFF" stroke-miterlimit="10" x1="228.8" y1="16.6" x2="148.8" y2="250.9"/>
				<line fill="none" stroke="#FFFFFF" stroke-miterlimit="10" x1="234.7" y1="16.6" x2="154.8" y2="250.9"/>
				<line fill="none" stroke="#FFFFFF" stroke-miterlimit="10" x1="240.7" y1="16.6" x2="160.7" y2="250.9"/>
				<line fill="none" stroke="#FFFFFF" stroke-miterlimit="10" x1="246.6" y1="16.6" x2="166.7" y2="250.9"/>
				<line fill="none" stroke="#FFFFFF" stroke-miterlimit="10" x1="252.6" y1="16.6" x2="172.6" y2="250.9"/>
				<line fill="none" stroke="#FFFFFF" stroke-miterlimit="10" x1="258.5" y1="16.6" x2="178.5" y2="250.9"/>
				<line fill="none" stroke="#FFFFFF" stroke-miterlimit="10" x1="264.5" y1="16.6" x2="184.5" y2="250.9"/>
			</g>
		</g>
		<line fill="none" stroke="#F1F1F2" stroke-width="3" stroke-miterlimit="10" x1="0.3" y1="97" x2="97.5" y2="97"/>
		<text transform="matrix(0.9849 0 0 1 66.4873 125.578)" fill="#FFFFFF" font-family="'Asap-BoldItalic'" font-size="23.5097">03</text>
	</g>
	<g>
		<defs>
			<path id="SVGID_1_" d="M299.3,0c64.6,0,100.4,40.4,100.4,114s-35.8,114-100.4,114c-64.6,0-100.7-40.4-100.7-114S234.7,0,299.3,0z
				 M350.1,114c0-46.8-17.3-72-50.8-72c-33.6,0-51.1,25.2-51.1,72c0,46.8,17.6,72.3,51.1,72.3C332.9,186.3,350.1,160.8,350.1,114z"
				/>
		</defs>
		<clipPath id="SVGID_5_">
			<use xlink:href="#SVGID_1_"  overflow="visible"/>
		</clipPath>
		<g clip-path="url(#SVGID_5_)">
			<defs>
				<rect id="SVGID_2_" x="-116.2" y="-23.7" width="779.9" height="211.3"/>
			</defs>
			<clipPath id="SVGID_6_">
				<use xlink:href="#SVGID_2_"  overflow="visible"/>
			</clipPath>
			<g clip-path="url(#SVGID_6_)">
				<line fill="none" stroke="#FFFFFF" stroke-miterlimit="10" x1="-98.5" y1="-125.4" x2="-275.2" y2="392.2"/>
				<line fill="none" stroke="#FFFFFF" stroke-miterlimit="10" x1="-85.4" y1="-125.4" x2="-262" y2="392.2"/>
				<line fill="none" stroke="#FFFFFF" stroke-miterlimit="10" x1="-72.3" y1="-125.4" x2="-248.9" y2="392.2"/>
				<line fill="none" stroke="#FFFFFF" stroke-miterlimit="10" x1="-59.1" y1="-125.4" x2="-235.8" y2="392.2"/>
				<line fill="none" stroke="#FFFFFF" stroke-miterlimit="10" x1="-46" y1="-125.4" x2="-222.7" y2="392.2"/>
				<line fill="none" stroke="#FFFFFF" stroke-miterlimit="10" x1="-32.9" y1="-125.4" x2="-209.5" y2="392.2"/>
				<line fill="none" stroke="#FFFFFF" stroke-miterlimit="10" x1="-19.8" y1="-125.4" x2="-196.4" y2="392.2"/>
				<line fill="none" stroke="#FFFFFF" stroke-miterlimit="10" x1="-6.6" y1="-125.4" x2="-183.3" y2="392.2"/>
				<line fill="none" stroke="#FFFFFF" stroke-miterlimit="10" x1="6.5" y1="-125.4" x2="-170.1" y2="392.2"/>
				<line fill="none" stroke="#FFFFFF" stroke-miterlimit="10" x1="19.6" y1="-125.4" x2="-157" y2="392.2"/>
				<line fill="none" stroke="#FFFFFF" stroke-miterlimit="10" x1="32.8" y1="-125.4" x2="-143.9" y2="392.2"/>
				<line fill="none" stroke="#FFFFFF" stroke-miterlimit="10" x1="45.9" y1="-125.4" x2="-130.8" y2="392.2"/>
				<line fill="none" stroke="#FFFFFF" stroke-miterlimit="10" x1="59" y1="-125.4" x2="-117.6" y2="392.2"/>
				<line fill="none" stroke="#FFFFFF" stroke-miterlimit="10" x1="72.1" y1="-125.4" x2="-104.5" y2="392.2"/>
				<line fill="none" stroke="#FFFFFF" stroke-miterlimit="10" x1="85.3" y1="-125.4" x2="-91.4" y2="392.2"/>
				<line fill="none" stroke="#FFFFFF" stroke-miterlimit="10" x1="98.4" y1="-125.4" x2="-78.3" y2="392.2"/>
				<line fill="none" stroke="#FFFFFF" stroke-miterlimit="10" x1="111.5" y1="-125.4" x2="-65.1" y2="392.2"/>
				<line fill="none" stroke="#FFFFFF" stroke-miterlimit="10" x1="124.6" y1="-125.4" x2="-52" y2="392.2"/>
				<line fill="none" stroke="#FFFFFF" stroke-miterlimit="10" x1="137.8" y1="-125.4" x2="-38.9" y2="392.2"/>
				<line fill="none" stroke="#FFFFFF" stroke-miterlimit="10" x1="150.9" y1="-125.4" x2="-25.8" y2="392.2"/>
				<line fill="none" stroke="#FFFFFF" stroke-miterlimit="10" x1="164" y1="-125.4" x2="-12.6" y2="392.2"/>
				<line fill="none" stroke="#FFFFFF" stroke-miterlimit="10" x1="177.1" y1="-125.4" x2="0.5" y2="392.2"/>
				<line fill="none" stroke="#FFFFFF" stroke-miterlimit="10" x1="190.3" y1="-125.4" x2="13.6" y2="392.2"/>
				<line fill="none" stroke="#FFFFFF" stroke-miterlimit="10" x1="203.4" y1="-125.4" x2="26.7" y2="392.2"/>
				<line fill="none" stroke="#FFFFFF" stroke-miterlimit="10" x1="216.5" y1="-125.4" x2="39.9" y2="392.2"/>
				<line fill="none" stroke="#FFFFFF" stroke-miterlimit="10" x1="229.6" y1="-125.4" x2="53" y2="392.2"/>
				<line fill="none" stroke="#FFFFFF" stroke-miterlimit="10" x1="242.8" y1="-125.4" x2="66.1" y2="392.2"/>
				<line fill="none" stroke="#FFFFFF" stroke-miterlimit="10" x1="255.9" y1="-125.4" x2="79.2" y2="392.2"/>
				<line fill="none" stroke="#FFFFFF" stroke-miterlimit="10" x1="269" y1="-125.4" x2="92.4" y2="392.2"/>
				<line fill="none" stroke="#FFFFFF" stroke-miterlimit="10" x1="282.1" y1="-125.4" x2="105.5" y2="392.2"/>
				<line fill="none" stroke="#FFFFFF" stroke-miterlimit="10" x1="295.3" y1="-125.4" x2="118.6" y2="392.2"/>
				<line fill="none" stroke="#FFFFFF" stroke-miterlimit="10" x1="308.4" y1="-125.4" x2="131.7" y2="392.2"/>
				<line fill="none" stroke="#FFFFFF" stroke-miterlimit="10" x1="321.5" y1="-125.4" x2="144.9" y2="392.2"/>
				<line fill="none" stroke="#FFFFFF" stroke-miterlimit="10" x1="334.6" y1="-125.4" x2="158" y2="392.2"/>
				<line fill="none" stroke="#FFFFFF" stroke-miterlimit="10" x1="347.8" y1="-125.4" x2="171.1" y2="392.2"/>
				<line fill="none" stroke="#FFFFFF" stroke-miterlimit="10" x1="360.9" y1="-125.4" x2="184.3" y2="392.2"/>
				<line fill="none" stroke="#FFFFFF" stroke-miterlimit="10" x1="374" y1="-125.4" x2="197.4" y2="392.2"/>
				<line fill="none" stroke="#FFFFFF" stroke-miterlimit="10" x1="387.2" y1="-125.4" x2="210.5" y2="392.2"/>
				<line fill="none" stroke="#FFFFFF" stroke-miterlimit="10" x1="400.3" y1="-125.4" x2="223.6" y2="392.2"/>
				<line fill="none" stroke="#FFFFFF" stroke-miterlimit="10" x1="413.4" y1="-125.4" x2="236.8" y2="392.2"/>
				<line fill="none" stroke="#FFFFFF" stroke-miterlimit="10" x1="426.5" y1="-125.4" x2="249.9" y2="392.2"/>
				<line fill="none" stroke="#FFFFFF" stroke-miterlimit="10" x1="439.7" y1="-125.4" x2="263" y2="392.2"/>
				<line fill="none" stroke="#FFFFFF" stroke-miterlimit="10" x1="452.8" y1="-125.4" x2="276.1" y2="392.2"/>
				<line fill="none" stroke="#FFFFFF" stroke-miterlimit="10" x1="465.9" y1="-125.4" x2="289.3" y2="392.2"/>
				<line fill="none" stroke="#FFFFFF" stroke-miterlimit="10" x1="479" y1="-125.4" x2="302.4" y2="392.2"/>
				<line fill="none" stroke="#FFFFFF" stroke-miterlimit="10" x1="492.2" y1="-125.4" x2="315.5" y2="392.2"/>
				<line fill="none" stroke="#FFFFFF" stroke-miterlimit="10" x1="505.3" y1="-125.4" x2="328.6" y2="392.2"/>
				<line fill="none" stroke="#FFFFFF" stroke-miterlimit="10" x1="518.4" y1="-125.4" x2="341.8" y2="392.2"/>
				<line fill="none" stroke="#FFFFFF" stroke-miterlimit="10" x1="531.5" y1="-125.4" x2="354.9" y2="392.2"/>
				<line fill="none" stroke="#FFFFFF" stroke-miterlimit="10" x1="544.7" y1="-125.4" x2="368" y2="392.2"/>
				<line fill="none" stroke="#FFFFFF" stroke-miterlimit="10" x1="557.8" y1="-125.4" x2="381.1" y2="392.2"/>
				<line fill="none" stroke="#FFFFFF" stroke-miterlimit="10" x1="570.9" y1="-125.4" x2="394.3" y2="392.2"/>
			</g>
		</g>
	</g>
</g>
</svg>
