<?xml version="1.0" encoding="utf-8"?>
<!-- Generator: Adobe Illustrator 18.1.1, SVG Export Plug-In . SVG Version: 6.00 Build 0)  -->
<svg version="1.1" id="Layer_1" xmlns="http://www.w3.org/2000/svg" xmlns:xlink="http://www.w3.org/1999/xlink" x="0px" y="0px"
	 viewBox="0 0 100 100" enable-background="new 0 0 100 100" xml:space="preserve">
<g>
	<circle fill="#688B49" cx="50" cy="50" r="50"/>
	<g>
		<path fill="#FFFFFF" d="M62.9,75c0,2.4-1.9,4.3-4.2,4.3H41.2c-2.3,0-4.2-1.9-4.2-4.3V35.5c0-2.4,1.9-4.3,4.2-4.3h17.5
			c2.3,0,4.2,1.9,4.2,4.3V75z"/>
		<rect x="42.6" y="28.2" fill="#FFFFFF" width="14.5" height="0.7"/>
		<rect x="42.4" y="21.6" fill="#FFFFFF" width="14.6" height="7.7"/>
		<ellipse fill="#FFFFFF" cx="49.8" cy="21.5" rx="7" ry="0.8"/>
		<ellipse fill="#FFFFFF" cx="49.8" cy="31.4" rx="7" ry="0.8"/>
		<g>
			<path opacity="0.95" fill="#B8CE50" d="M49,68.8C49,68.9,49,68.9,49,68.8L49,68.8L49,68.8c-0.1-0.1,0.4-3.4-1.1-4.9
				c-0.7-0.6-1.5-1-2.4-1.4c-1.4-0.6-2.9-1.3-4-3c-1.9-2.8,1.2-5.9,1.8-6.4c-0.1,0.6-0.4,2.5,1,4.3c0.7,0.9,2.3,1.5,3.4,2.2
				c0.7,0.5,1.2,0.8,1.8,1.3c-0.5-1-1.2-2.1-1.9-3.2c-1.3-2-2.8-4.3-3.6-7c-0.5-1.6-0.3-3,0.5-4.3c1.6-2.6,5.5-3.8,6.3-4
				c-0.6,0.6-2.8,3-2.2,6.7c0.3,1.6,1.5,3.4,2.8,5.2c1.7,2.4,3.5,5,3.5,7.7C54.8,65.5,49.1,68.8,49,68.8z"/>
			<path opacity="0.95" fill="#B8CE50" d="M57.9,50.4c-0.3,0.7-0.8,1.4-1.6,2.1c-0.6,0.5-1.4,0.6-2.1,0.5c-0.7,0-1.9-0.3-2.5-1.4
				c-0.7-1.3-0.6-2.7,0.3-3.9c2.2-2.8,0.6-4.8,0.2-5.2c0.5,0.2,4.9,1.5,5.9,4.4C58.5,47.9,58.5,49.2,57.9,50.4z"/>
		</g>
	</g>
</g>
</svg>
