<?xml version="1.0" encoding="utf-8"?>
<!-- Generator: Adobe Illustrator 18.1.1, SVG Export Plug-In . SVG Version: 6.00 Build 0)  -->
<svg version="1.1" id="Layer_1" xmlns="http://www.w3.org/2000/svg" xmlns:xlink="http://www.w3.org/1999/xlink" x="0px" y="0px"
	 viewBox="0 0 140 62" enable-background="new 0 0 140 62" xml:space="preserve">
<g>
	<g>
		<g>
			<g>
				<g>
					<path fill="#231F20" d="M49.4,28.5l-3.5,0.4c-1.3,0.2-2,0.9-2,2.2v13.7h2.3V31l3.5-0.4c0.4,0,0.7-0.1,1-0.1
						c2.6,0,3.8,1.2,3.8,3.8v10.5h2.3V34.3c0-1.9-0.5-3.4-1.6-4.4C53.8,28.7,51.9,28.3,49.4,28.5z"/>
					<path fill="#231F20" d="M77.6,28.6L77.6,28.6c-0.9-0.3-2.1-0.3-3.6-0.1l-2.6,0.4c-1.1,0.1-1.7,0.8-1.7,1.9v13.9h1.5V30.4
						l2.9-0.4c1.1-0.1,2-0.2,2.8,0C77.1,29.5,77.3,29.1,77.6,28.6C77.6,28.6,77.6,28.6,77.6,28.6z"/>
					<path fill="#231F20" d="M115.8,28.3c-2,0-3.7,0.7-5.1,2.2c-1.5,1.6-2.2,3.6-2.2,6.1c0,2.5,0.7,4.4,2,5.9
						c1.3,1.5,3.2,2.3,5.3,2.3c2.1,0,2.4-0.2,3.4-0.4c0.4-0.1,1.1-0.2,1.8-0.4c0.4-0.6,0.9-1.2,1.4-1.7v0c0,0-2.3,0.6-3.3,0.8
						c-1,0.3-3.2,0.4-3.2,0.4c-1.6,0-2.9-0.5-4-1.6c-1.1-1.1-1.7-2.6-1.8-4.5v0v0h12.2c0.4,0,0.7-0.2,0.7-0.7
						c0.1-2.7-0.6-4.7-1.9-6.2C119.8,29,118,28.3,115.8,28.3z M110.1,36c0.1-2,0.6-3.5,1.7-4.7c1-1.2,2.4-1.8,4-1.8
						c1.9,0,3.3,0.6,4.3,1.8c0.9,1.1,1.4,2.7,1.4,4.6H110.1z"/>
					<path fill="#231F20" d="M9.2,36.5l-4.7-1.3c-1-0.3-1.6-0.7-1.9-1.2c-0.2-0.3-0.2-0.7-0.2-1.2c0-1.5,1.3-2.4,3.4-2.2l0.3,0
						c1.6,0.1,1.6,0.1,2.3,0.2C8.5,30.9,8.7,31,9,31c0.9,0.2,1.7,0.4,2.2,0.6c0.5-0.6,1-1.2,1.5-1.7v0l-0.3-0.1
						c-0.1,0-1.4-0.5-2.7-0.8c-1.5-0.3-2.7-0.4-3.8-0.4c-1.4,0-2.9,0.4-3.9,1c-1.3,0.8-1.9,2-1.9,3.6c0,2.1,1.2,3.4,3.7,4.1l4.6,1.3
						c1,0.3,1.7,0.7,2,1.1c0.2,0.2,0.2,0.6,0.2,1.1c0,0.9-0.4,2.2-3.4,2.2c-1,0-2.1-0.1-3.2-0.4l-2.2-0.6c-0.6,0.6-1.2,1.2-1.7,1.8
						l3.2,0.9L7.1,45l0,0c1.5,0,2.8-0.3,3.9-1c1.3-0.8,1.9-2.1,1.9-3.6C12.9,38.5,11.6,37.1,9.2,36.5z"/>
					<g>
						<path fill="#231F20" d="M39.2,42.1l-1.4,0.4c-0.9,0.2-2.9,0.3-2.9,0.3c-1.4,0-2.5-0.4-3.5-1.4c-0.9-0.9-1.4-2.1-1.6-3.6H41
							c0.7,0,1.1-0.4,1.1-1.1c0.1-2.6-0.6-4.7-1.9-6.2c-1.3-1.4-3.1-2.2-5.3-2.2c-2,0-3.7,0.8-5.1,2.2c-1.5,1.5-2.2,3.6-2.2,6.1
							c0,2.4,0.7,4.4,2,5.9c1.3,1.5,3.2,2.3,5.3,2.3h0c1.5,0,2.1-0.1,2.7-0.3c0.2,0,0.4-0.1,0.7-0.1c0.7-0.1,1.9-0.5,2.6-0.7
							c0,0,0,0,0,0C40.2,43.3,39.7,42.7,39.2,42.1z M31.3,32c0.9-1,2.1-1.5,3.5-1.5c1.7,0,2.9,0.5,3.8,1.6c0.7,0.9,1.1,2.2,1.2,3.7
							h-9.9C29.9,34.2,30.4,32.9,31.3,32z"/>
					</g>
					<g>
						<path fill="#231F20" d="M26,30.5C26,30.5,26,30.6,26,30.5C26,30.6,26,30.5,26,30.5z"/>
						<path fill="#231F20" d="M25.3,31.4c0.2-0.3,0.5-0.6,0.7-0.9C25.7,30.9,25.5,31.1,25.3,31.4L25.3,31.4z"/>
						<path fill="#231F20" d="M26,30.5c0.2-0.3,0.5-0.6,0.8-0.8C26.5,30,26.2,30.3,26,30.5z"/>
						<path fill="#231F20" d="M25.8,42l-2.4,0.6l-1.9,0.3c-1.5,0-2.8-0.6-3.7-1.8c-0.9-1.2-1.4-2.6-1.4-4.4c0-1.8,0.4-3.3,1.3-4.4
							c0.9-1.1,2.3-1.8,3.7-1.7c1.2,0,1.5,0.1,1.8,0.2c0.1,0,0.1,0,0.2,0c0.7,0.1,1.8,0.5,2.4,0.7c0.2-0.3,0.5-0.6,0.7-0.9
							c0,0,0,0,0,0c0.2-0.3,0.5-0.6,0.8-0.8h0l0,0L27,29.6c-0.1,0-2.3-0.8-3-0.9l0,0c-0.7-0.1-1.5-0.3-2.4-0.3h0
							c-1.9-0.1-4,0.9-5.4,2.4c-1.3,1.6-2,3.5-2,5.9c0,2.3,0.7,4.3,2,5.9c1.4,1.6,3.2,2.5,5.4,2.5h0l2.3-0.3l2.4-0.7l1.1-0.3l0,0
							C26.8,43.2,26.3,42.6,25.8,42z"/>
					</g>
					<g>
						<path fill="#231F20" d="M90.7,33.7c0-1.8-0.5-3.2-1.6-4.2c-1-0.8-2.5-1.3-3.9-1.3c-1.4,0.1-2.4,0.2-3.5,0.4
							c-0.5,0.1-1.4,0.3-2.1,0.5c-0.1,0.1-0.2,0.2-0.2,0.4c-0.3,0.4-0.5,0.9-0.7,1.3l0,0c0,0,2-0.6,3.3-0.8c1.3-0.2,1.4-0.4,3.3-0.4
							c2.5,0,4.1,1.3,4.1,4v2.1h-5.3c-1.8,0-3.3,0.3-4.3,1c-1.3,0.8-1.9,2.1-1.9,3.7c0,1.6,0.6,2.8,1.8,3.6c1.3,0.9,3,1.1,5.1,0.8
							l3.6-0.7c0.9-0.2,1.8-0.1,2.5,0.3l0.9,0.4c0.1-0.2,0.2-0.3,0.3-0.5c0.1-0.2,0.2-0.3,0.3-0.5l-1.5-0.9V33.7z M89.2,42.9
							l-4.6,0.8c-1.7,0.3-3,0.1-4-0.5c-0.9-0.6-1.4-1.6-1.4-2.8c0-2.3,1.6-3.4,4.7-3.4v0v0h5.3V42.9z"/>
					</g>
					<path fill="#231F20" d="M105.2,23.2v6l-3.8-0.5c-2.8-0.3-5,0.3-6.5,2c-1.4,1.5-2.1,3.5-2.1,6c0,2.5,0.7,4.5,2.2,6.1
						c1.6,1.7,3.8,2.4,6.6,2.1l3.5-0.4c1.2-0.1,1.7-0.7,1.7-1.8V21.8C106.2,22.2,105.7,22.7,105.2,23.2z M105.2,43.1l-3.9,0.5
						c-2.4,0.3-4.2-0.3-5.4-1.7c-1.1-1.2-1.6-3-1.6-5.1c0-2.1,0.5-3.8,1.6-5v0v0c1.2-1.4,3-1.9,5.4-1.7l3.9,0.4V43.1z"/>
					<path fill="#231F20" d="M66.3,43.6c-1.8,0.3-3,0-3.7-0.8c-0.5-0.6-0.8-1.7-0.8-3.2v-9.2h5.8V29h-5.8v-4.8
						c-0.5,0.6-1.1,1.1-1.5,1.8v3h-2.8v1.4h2.8v9.2c0,2.2,0.6,3.8,1.9,4.7c1.1,0.7,2.5,1,4.4,0.6l1.5-0.3l-0.2-1.3L66.3,43.6z"/>
				</g>
				<g>
					<g>
						<path fill="#231F20" d="M129.9,31.4C129.9,31.4,129.9,31.3,129.9,31.4c0-0.2,0.6-4.1-1.2-5.9c-0.7-0.8-1.7-1.2-2.7-1.7
							c-1.6-0.8-3.2-1.5-4.5-3.5c-2.1-3.4,1.3-7,2-7.6c-0.1,0.7-0.5,2.9,1.1,5c0.8,1,2.6,1.8,3.8,2.7c0.8,0.5,1.3,0.9,2,1.6l0,0
							c-0.5-1.2-1.3-2.4-2.1-3.8c-1.5-2.4-3.1-5.1-4-8.3c-0.5-1.9-0.4-3.6,0.5-5.1c1.8-3.1,6.2-4.5,7.1-4.8
							c-0.7,0.7-3.2,3.6-2.4,7.9c0.3,1.9,1.7,4,3.1,6.1c1.9,2.9,3.9,5.9,3.9,9.2c0,4.1-6.5,8.1-6.5,8.1
							C130,31.3,129.9,31.4,129.9,31.4L129.9,31.4z"/>
					</g>
					<g>
						<path fill="#231F20" d="M132.5,10.8c-0.8-1.5-0.6-3.3,0.4-4.6c2.5-3.3,0.6-5.7,0.3-6.2c0.6,0.2,5.6,1.8,6.6,5.2
							c0.4,1.2,0.4,2.8-0.3,4.2c-0.4,0.9-0.9,1.7-1.8,2.4c-0.7,0.6-1.6,0.7-2.3,0.6C134.5,12.5,133.2,12.2,132.5,10.8z"/>
					</g>
				</g>
			</g>
		</g>
		<g>
			<path fill="#231F20" d="M29.6,53.5c0-0.3,0-0.4,0-0.4c0-0.3,0.6-0.3,0.7-0.3c0.1,0,0.3,0,0.3,1c0,0,0,0.1,0,0.2
				c0.5-0.9,1.3-1.3,2.1-1.3c0.9,0,2.4,0.5,2.4,2.7c0,2.4-1.3,4.1-3.2,4.1c-0.9,0-1.5-0.4-1.7-0.7l-0.3,3c0,0.2-0.2,0.3-0.5,0.3
				h-0.1c-0.3,0-0.5-0.1-0.5-0.3C28.7,61.7,29.6,54.1,29.6,53.5z M30.5,55.6c-0.1,0.7-0.2,1.5-0.2,2.3c0.2,0.2,0.7,0.6,1.5,0.6
				c1.8,0,2.3-1.6,2.3-3.1c0-1.4-0.7-1.8-1.5-1.8C31.9,53.5,31,54,30.5,55.6z"/>
			<path fill="#231F20" d="M41.7,58c0,0.5,0.3,0.5,0.5,0.5c0.2,0,0.3-0.1,0.3-0.1c0,0,0.1,0,0.1,0.1c0,0,0,0.2,0,0.5
				c-0.1,0.3-0.5,0.4-0.8,0.4c-0.7,0-1.2-0.4-1.2-1.3V58c-0.7,1-1.5,1.4-2.3,1.4c-1.3,0-1.7-0.7-1.7-1.7c0-0.2,0.5-4.9,0.5-4.9
				c0-0.2,0.2-0.3,0.5-0.3h0.1c0.4,0,0.5,0.1,0.5,0.3c0,0-0.5,4.4-0.5,4.6c0,0.7,0.3,1,1,1c0.6,0,1.5-0.4,2.1-2.2
				c0.2-1.6,0.4-3.4,0.4-3.4c0-0.2,0.2-0.3,0.5-0.3h0c0.4,0,0.5,0.1,0.5,0.3C42.2,52.9,41.7,57.6,41.7,58z"/>
			<path fill="#231F20" d="M44.4,59.4L44.4,59.4c-0.4,0-0.5-0.1-0.5-0.3c0,0,0.6-5,0.6-5.6c0-0.3,0-0.4,0-0.4c0-0.3,0.6-0.3,0.7-0.3
				c0.1,0,0.3,0,0.3,1c0,0,0,0.1,0,0.1c0.4-0.8,1.1-1.3,1.7-1.3c0.3,0,0.6,0.1,0.6,0.5c0,0.3-0.2,0.7-0.4,0.7
				c-0.1,0-0.2-0.1-0.5-0.1c-0.5,0-1.2,0.4-1.6,2c-0.2,1.6-0.4,3.4-0.4,3.4C44.9,59.3,44.7,59.4,44.4,59.4z"/>
			<path fill="#231F20" d="M51.7,52.6c1.7,0,2.6,1,2.6,2.8c0,2.7-1.3,4.1-3.3,4.1c-1.8,0-2.7-1-2.7-2.8
				C48.3,54.5,49.3,52.6,51.7,52.6z M53.2,55.4c0-1.3-0.5-1.9-1.6-1.9c-1.4,0-2.2,1.2-2.2,3.1c0,1.3,0.5,1.9,1.6,1.9
				C52.4,58.5,53.2,57.4,53.2,55.4z"/>
			<path fill="#231F20" d="M58.7,58c0.1,0,0.6,0.5,1.5,0.5c0.8,0,1.4-0.4,1.4-1.1c0-1.6-2.8-0.8-2.8-2.9c0-1.2,1-1.9,2.3-1.9
				c0.6,0,1.6,0.2,1.6,0.6c0,0.1-0.3,0.6-0.5,0.6c-0.1,0-0.5-0.3-1.1-0.3c-0.8,0-1.2,0.3-1.2,0.9c0,1.2,2.8,0.7,2.8,2.8
				c0,1.3-1,2.3-2.4,2.3c-0.5,0-1.8-0.2-1.8-0.7C58.5,58.2,58.7,58,58.7,58z"/>
			<path fill="#231F20" d="M69.1,57.9c0.1,0,0.1,0,0.1,0.2c0,0,0,0.3-0.1,0.6c-0.1,0.6-1.6,0.8-2.1,0.8c-1.3,0-2.9-0.4-2.9-2.6
				s1-4.2,3.5-4.2c1.6,0,2.2,1.1,2.2,1.7c0,1.8-1.7,2.3-3.5,2.3c-0.5,0-0.8,0-1.1-0.1v0.1c0,1.4,0.7,1.8,1.9,1.8
				C68.3,58.5,68.9,57.9,69.1,57.9z M65.3,55.7h0.9c0.4,0,2.5,0,2.5-1.3c0-0.5-0.4-0.9-1.2-0.9C66,53.5,65.5,54.5,65.3,55.7z"/>
			<path fill="#231F20" d="M76.6,58.5c0.2,0,0.3-0.1,0.3-0.1c0,0,0.1,0,0.1,0.1c0,0,0,0.2,0,0.5c-0.1,0.3-0.5,0.4-0.8,0.4
				c-0.7,0-1.2-0.4-1.2-1.3c0-0.4,0.4-3.4,0.4-3.7c0-0.7-0.3-1-1-1c-0.6,0-1.5,0.4-2.1,2.1c-0.2,1.7-0.4,3.5-0.4,3.5
				c0,0.2-0.2,0.3-0.5,0.3h0c-0.3,0-0.5-0.1-0.5-0.3c0,0,0.6-5,0.6-5.6c0-0.3,0-0.4,0-0.4c0-0.3,0.6-0.3,0.7-0.3c0.1,0,0.3,0,0.3,1
				c0,0,0,0.1,0,0.1c0.7-0.9,1.5-1.3,2.3-1.3c1.3,0,1.7,0.7,1.7,1.7c0,0.2-0.4,3.5-0.4,3.7C76.2,58.5,76.4,58.5,76.6,58.5z"/>
			<path fill="#231F20" d="M79.5,51.3c0-0.2,0.2-0.3,0.5-0.3H80c0.4,0,0.5,0.1,0.5,0.3l-0.1,1.3h1.1c0.2,0,0.2,0.1,0.2,0.2
				c0,0-0.1,0.7-0.6,0.7h-0.8c0,0-0.4,3.9-0.4,4.2c0,0.6,0.3,0.7,0.6,0.7c0.4,0,0.5-0.1,0.6-0.1c0,0,0.1,0,0.1,0.1
				c0,0,0,0.3-0.1,0.5c-0.1,0.3-0.5,0.4-0.9,0.4c-0.6,0-1.4-0.2-1.4-1.4c0-0.4,0.5-4.4,0.5-4.4h-0.6c-0.2,0-0.2-0.1-0.2-0.3
				c0-0.1,0-0.6,0.3-0.6h0.6L79.5,51.3z"/>
			<path fill="#231F20" d="M84.4,58.5c0.2,0,0.3-0.1,0.3-0.1c0,0,0.1,0,0.1,0.1c0,0,0,0.2-0.1,0.5c-0.1,0.3-0.5,0.4-0.8,0.4
				c-0.7,0-1.1-0.4-1.1-1.2c0-0.5,0.5-5.3,0.5-5.3c0-0.2,0.2-0.3,0.5-0.3H84c0.4,0,0.5,0.1,0.5,0.3c0,0-0.5,4.7-0.5,5.1
				C84,58.5,84.2,58.5,84.4,58.5z M83.7,50c0-0.2,0.2-0.3,0.5-0.3h0.2c0.4,0,0.5,0.1,0.5,0.3l-0.1,0.8c0,0.2-0.1,0.3-0.5,0.3h-0.2
				c-0.3,0-0.5-0.1-0.5-0.3L83.7,50z"/>
			<path fill="#231F20" d="M91.9,49.7L91.9,49.7c0.4,0,0.5,0.1,0.5,0.3c0,0-0.8,7.6-0.8,8c0,0.5,0.3,0.5,0.5,0.5
				c0.2,0,0.3-0.1,0.3-0.1c0,0,0.1,0,0.1,0.1c0,0,0,0.2-0.1,0.5c-0.1,0.3-0.5,0.4-0.8,0.4c-0.7,0-1.2-0.4-1.2-1.3V58
				c-0.5,1-1.3,1.4-2.1,1.4c-0.9,0-2.4-0.5-2.4-2.8c0-2.4,1.3-4.1,3.2-4.1c0.9,0,1.4,0.3,1.8,0.6c0.2-1.8,0.3-3.2,0.3-3.2
				C91.4,49.8,91.6,49.7,91.9,49.7z M90.9,54c-0.3-0.2-0.7-0.5-1.5-0.5c-1.8,0-2.3,1.5-2.3,3.1c0,1.5,0.6,1.9,1.5,1.9
				c0.6,0,1.4-0.5,2-2.1L90.9,54z"/>
			<path fill="#231F20" d="M96.8,52.6c1.7,0,2.6,1,2.6,2.8c0,2.7-1.3,4.1-3.3,4.1c-1.8,0-2.7-1-2.7-2.8
				C93.4,54.5,94.3,52.6,96.8,52.6z M98.2,55.4c0-1.3-0.5-1.9-1.6-1.9c-1.4,0-2.2,1.2-2.2,3.1c0,1.3,0.5,1.9,1.6,1.9
				C97.5,58.5,98.2,57.4,98.2,55.4z"/>
		</g>
	</g>
</g>
</svg>
