<?xml version="1.0" encoding="utf-8"?>
<!-- Generator: Adobe Illustrator 18.1.1, SVG Export Plug-In . SVG Version: 6.00 Build 0)  -->
<svg version="1.1" id="Layer_1" xmlns="http://www.w3.org/2000/svg" xmlns:xlink="http://www.w3.org/1999/xlink" x="0px" y="0px"
	 viewBox="0 0 80 35.6" enable-background="new 0 0 80 35.6" xml:space="preserve">
<g>
	<g>
		<g>
			<g>
				<path fill="#B8CE50" d="M28.3,16.4l-2,0.2c-0.8,0.1-1.2,0.5-1.2,1.3v7.9h1.3v-7.9l2-0.2c0.2,0,0.4,0,0.6,0
					c1.5,0,2.2,0.7,2.2,2.2v6h1.3v-6c0-1.1-0.3-1.9-0.9-2.5C30.7,16.5,29.7,16.2,28.3,16.4z"/>
				<path fill="#B8CE50" d="M44.4,16.4L44.4,16.4c-0.5-0.2-1.2-0.2-2.1,0l-1.5,0.2c-0.6,0.1-1,0.4-1,1.1v8h0.9v-8.3l1.7-0.3
					c0.6-0.1,1.1-0.1,1.6,0C44.1,16.9,44.2,16.7,44.4,16.4C44.3,16.4,44.4,16.4,44.4,16.4z"/>
				<path fill="#B8CE50" d="M66.2,16.2c-1.1,0-2.1,0.4-2.9,1.3C62.5,18.4,62,19.6,62,21c0,1.4,0.4,2.5,1.1,3.4
					c0.8,0.9,1.8,1.3,3,1.3c1.2,0,1.4-0.1,2-0.2c0.2,0,0.6-0.1,1-0.2c0.2-0.3,0.5-0.7,0.8-1l0,0c0,0-1.3,0.3-1.9,0.5
					c-0.6,0.1-1.8,0.2-1.8,0.2c-0.9,0-1.6-0.3-2.3-0.9c-0.6-0.6-1-1.5-1-2.6v0v0h7c0.3,0,0.4-0.1,0.4-0.4c0-1.5-0.3-2.7-1.1-3.6
					C68.4,16.7,67.4,16.2,66.2,16.2z M62.9,20.7c0-1.1,0.4-2,1-2.7c0.6-0.7,1.4-1,2.3-1c1.1,0,1.9,0.4,2.5,1.1
					c0.5,0.7,0.8,1.5,0.8,2.6H62.9z"/>
				<path fill="#B8CE50" d="M5.2,20.9l-2.7-0.7C2,20,1.6,19.8,1.5,19.5c-0.1-0.2-0.1-0.4-0.1-0.7c0-0.9,0.7-1.3,2-1.3l0.2,0
					c0.9,0.1,0.9,0.1,1.3,0.1c0.1,0,0.2,0,0.4,0.1c0.5,0.1,1,0.2,1.2,0.3c0.3-0.4,0.5-0.7,0.9-1l0,0L7,17c0,0-0.8-0.3-1.6-0.4
					c-0.8-0.2-1.5-0.2-2.2-0.2c-0.8,0-1.6,0.2-2.2,0.6C0.4,17.4,0,18.1,0,19c0,1.2,0.7,2,2.1,2.4l2.7,0.7c0.6,0.2,1,0.4,1.2,0.6
					C6,22.9,6,23.1,6,23.4c0,0.5-0.2,1.2-2,1.2c-0.6,0-1.2-0.1-1.8-0.2L1,24c-0.4,0.3-0.7,0.7-1,1l1.9,0.5l2.2,0.3l0,0
					c0.9,0,1.6-0.2,2.2-0.6c0.7-0.5,1.1-1.2,1.1-2.1C7.4,22.1,6.6,21.3,5.2,20.9z"/>
				<g>
					<path fill="#B8CE50" d="M22.4,24.1l-0.8,0.2c-0.5,0.1-1.7,0.2-1.7,0.2c-0.8,0-1.4-0.3-2-0.8c-0.5-0.5-0.8-1.2-0.9-2h6.4
						c0.4,0,0.6-0.2,0.6-0.6c0-1.5-0.3-2.7-1.1-3.5c-0.7-0.8-1.8-1.3-3-1.3c-1.1,0-2.1,0.4-2.9,1.3c-0.8,0.9-1.3,2.1-1.3,3.5
						c0,1.4,0.4,2.5,1.1,3.4c0.7,0.9,1.8,1.3,3,1.3h0c0.8,0,1.2-0.1,1.5-0.1c0.1,0,0.2-0.1,0.4-0.1c0.4-0.1,1.1-0.3,1.5-0.4
						c0,0,0,0,0,0C23,24.8,22.7,24.5,22.4,24.1z M17.9,18.3c0.5-0.6,1.2-0.9,2-0.9c0.9,0,1.7,0.3,2.1,0.9c0.4,0.5,0.7,1.2,0.7,2.1
						H17C17.1,19.6,17.4,18.9,17.9,18.3z"/>
				</g>
				<g>
					<path fill="#B8CE50" d="M14.9,17.5C14.8,17.5,14.8,17.5,14.9,17.5C14.8,17.5,14.8,17.5,14.9,17.5z"/>
					<path fill="#B8CE50" d="M14.4,18c0.1-0.2,0.3-0.3,0.4-0.5C14.7,17.7,14.6,17.9,14.4,18L14.4,18z"/>
					<path fill="#B8CE50" d="M14.9,17.5c0.1-0.2,0.3-0.3,0.4-0.5C15.1,17.2,15,17.4,14.9,17.5z"/>
					<path fill="#B8CE50" d="M14.8,24.1l-1.4,0.4l-1.1,0.2c-0.9,0-1.6-0.3-2.1-1c-0.5-0.7-0.8-1.5-0.8-2.5c0-1.1,0.3-1.9,0.7-2.5
						c0.5-0.6,1.3-1,2.1-1c0.7,0,0.9,0.1,1,0.1c0,0,0.1,0,0.1,0c0.4,0.1,1,0.3,1.4,0.4c0.1-0.2,0.3-0.3,0.4-0.5c0,0,0,0,0,0
						c0.1-0.2,0.3-0.3,0.4-0.5c0,0,0,0,0,0l0,0L15.4,17c-0.1,0-1.3-0.4-1.7-0.5l0,0c-0.4-0.1-0.9-0.2-1.4-0.2c0,0,0,0,0,0
						c-1.1,0-2.3,0.5-3.1,1.4c-0.8,0.9-1.2,2-1.2,3.4c0,1.3,0.4,2.5,1.1,3.4c0.8,0.9,1.8,1.4,3.1,1.4h0l1.3-0.2l1.4-0.4l0.6-0.2l0,0
						C15.3,24.8,15,24.4,14.8,24.1z"/>
				</g>
				<g>
					<path fill="#B8CE50" d="M51.8,19.4c0-1.1-0.3-1.9-0.9-2.4c-0.5-0.5-1.4-0.8-2.2-0.7c-0.8,0-1.4,0.1-2,0.3
						c-0.3,0.1-0.8,0.2-1.2,0.3c0,0.1-0.1,0.1-0.1,0.2c-0.2,0.2-0.3,0.5-0.4,0.7l0,0c0,0,1.1-0.3,1.9-0.5c0.7-0.1,0.8-0.2,1.9-0.2
						c1.4,0,2.3,0.8,2.3,2.3v1.2h-3c-1,0-1.9,0.2-2.5,0.6c-0.7,0.5-1.1,1.2-1.1,2.1c0,0.9,0.4,1.6,1.1,2.1c0.7,0.5,1.7,0.7,2.9,0.4
						l2.1-0.4c0.5-0.1,1,0,1.4,0.2l0.5,0.2c0.1-0.1,0.1-0.2,0.2-0.3c0.1-0.1,0.1-0.2,0.2-0.3l-0.9-0.5V19.4z M51,24.6l-2.6,0.5
						c-1,0.2-1.7,0.1-2.3-0.3c-0.5-0.4-0.8-0.9-0.8-1.6c0-1.3,0.9-1.9,2.7-1.9v0v0h3V24.6z"/>
				</g>
				<path fill="#B8CE50" d="M60.1,13.3v3.4l-2.2-0.3c-1.6-0.2-2.8,0.2-3.7,1.2c-0.8,0.9-1.2,2-1.2,3.4c0,1.5,0.4,2.6,1.2,3.5
					c0.9,1,2.2,1.4,3.8,1.2l2-0.3c0.7-0.1,1-0.4,1-1v-12C60.7,12.7,60.4,13,60.1,13.3z M60.1,24.7L57.9,25c-1.4,0.2-2.4-0.2-3.1-1
					c-0.6-0.7-0.9-1.7-0.9-2.9c0-1.2,0.3-2.2,0.9-2.9v0v0c0.7-0.8,1.7-1.1,3.1-1l2.2,0.2V24.7z"/>
				<path fill="#B8CE50" d="M37.9,25c-1,0.2-1.7,0-2.1-0.5c-0.3-0.4-0.4-1-0.4-1.8v-5.3h3.3v-0.8h-3.3v-2.8c-0.3,0.3-0.6,0.7-0.9,1
					v1.7h-1.6v0.8h1.6v5.3c0,1.3,0.4,2.2,1.1,2.7c0.6,0.4,1.4,0.5,2.5,0.4l0.9-0.2l-0.1-0.7L37.9,25z"/>
			</g>
			<g>
				<g>
					<path fill="#B8CE50" d="M74.2,18C74.2,18,74.2,18,74.2,18c0-0.1,0.3-2.4-0.7-3.4c-0.4-0.4-1-0.7-1.6-1c-0.9-0.4-1.8-0.9-2.6-2
						c-1.2-1.9,0.8-4,1.1-4.4c-0.1,0.4-0.3,1.7,0.6,2.9c0.4,0.6,1.5,1,2.2,1.5c0.5,0.3,0.7,0.5,1.2,0.9l0,0
						c-0.3-0.7-0.7-1.4-1.2-2.2C72.5,9,71.5,7.5,71,5.7c-0.3-1.1-0.2-2,0.3-2.9c1-1.8,3.5-2.6,4.1-2.7C75,0.4,73.6,2.1,74,4.6
						c0.2,1.1,1,2.3,1.8,3.5c1.1,1.7,2.2,3.4,2.2,5.3C78,15.7,74.3,18,74.2,18C74.3,18,74.3,18,74.2,18L74.2,18z"/>
				</g>
				<g>
					<path fill="#B8CE50" d="M75.7,6.2c-0.4-0.9-0.4-1.9,0.2-2.7c1.4-1.9,0.4-3.3,0.2-3.6c0.3,0.1,3.2,1,3.8,3
						c0.2,0.7,0.2,1.6-0.2,2.4c-0.2,0.5-0.5,1-1,1.4c-0.4,0.3-0.9,0.4-1.3,0.4C76.9,7.2,76.1,7,75.7,6.2z"/>
				</g>
			</g>
		</g>
	</g>
	<g>
		<path fill="#B8CE50" d="M16.9,30.7c0-0.2,0-0.2,0-0.3c0-0.2,0.4-0.2,0.4-0.2c0.1,0,0.2,0,0.2,0.6c0,0,0,0.1,0,0.1
			c0.3-0.5,0.7-0.8,1.2-0.8c0.5,0,1.4,0.3,1.4,1.6c0,1.4-0.7,2.4-1.8,2.4c-0.5,0-0.8-0.2-1-0.4L17,35.4c0,0.1-0.1,0.2-0.3,0.2h0
			c-0.2,0-0.3-0.1-0.3-0.2C16.4,35.4,16.9,31,16.9,30.7z M17.4,31.9c0,0.4-0.1,0.9-0.1,1.3c0.1,0.1,0.4,0.3,0.9,0.3
			c1,0,1.3-0.9,1.3-1.8c0-0.8-0.4-1.1-0.9-1.1C18.2,30.7,17.7,31,17.4,31.9z"/>
		<path fill="#B8CE50" d="M23.8,33.3c0,0.3,0.1,0.3,0.3,0.3c0.1,0,0.2,0,0.2,0c0,0,0,0,0,0.1c0,0,0,0.1,0,0.3c0,0.2-0.3,0.2-0.4,0.2
			c-0.4,0-0.7-0.2-0.7-0.7v-0.1c-0.4,0.6-0.9,0.8-1.3,0.8c-0.7,0-1-0.4-1-1c0-0.1,0.3-2.8,0.3-2.8c0-0.1,0.1-0.2,0.3-0.2h0
			c0.2,0,0.3,0.1,0.3,0.2c0,0-0.3,2.5-0.3,2.6c0,0.4,0.2,0.6,0.6,0.6c0.3,0,0.9-0.2,1.2-1.2c0.1-0.9,0.2-2,0.2-2
			c0-0.1,0.1-0.2,0.3-0.2h0c0.2,0,0.3,0.1,0.3,0.2C24.1,30.4,23.8,33,23.8,33.3z"/>
		<path fill="#B8CE50" d="M25.4,34.1L25.4,34.1c-0.2,0-0.3-0.1-0.3-0.2c0,0,0.3-2.9,0.3-3.2c0-0.2,0-0.2,0-0.3
			c0-0.2,0.4-0.2,0.4-0.2c0.1,0,0.2,0,0.2,0.6c0,0,0,0,0,0.1c0.2-0.5,0.6-0.7,1-0.7c0.1,0,0.4,0.1,0.4,0.3c0,0.2-0.1,0.4-0.2,0.4
			c-0.1,0-0.1-0.1-0.3-0.1c-0.3,0-0.7,0.2-0.9,1.2c-0.1,0.9-0.2,2-0.2,2C25.7,34,25.5,34.1,25.4,34.1z"/>
		<path fill="#B8CE50" d="M29.6,30.2c1,0,1.5,0.6,1.5,1.6c0,1.5-0.7,2.3-1.9,2.3c-1,0-1.5-0.6-1.5-1.6
			C27.6,31.3,28.2,30.2,29.6,30.2z M30.4,31.8c0-0.7-0.3-1.1-0.9-1.1c-0.8,0-1.2,0.7-1.2,1.8c0,0.7,0.3,1.1,0.9,1.1
			C30,33.6,30.4,32.9,30.4,31.8z"/>
		<path fill="#B8CE50" d="M33.6,33.3c0.1,0,0.3,0.3,0.9,0.3c0.4,0,0.8-0.2,0.8-0.6c0-0.9-1.6-0.5-1.6-1.7c0-0.7,0.6-1.1,1.3-1.1
			c0.3,0,0.9,0.1,0.9,0.4c0,0.1-0.1,0.4-0.3,0.4c0,0-0.3-0.2-0.6-0.2c-0.4,0-0.7,0.2-0.7,0.5c0,0.7,1.6,0.4,1.6,1.6
			c0,0.8-0.5,1.3-1.4,1.3c-0.3,0-1-0.1-1-0.4C33.4,33.4,33.5,33.3,33.6,33.3z"/>
		<path fill="#B8CE50" d="M39.5,33.2C39.5,33.2,39.5,33.2,39.5,33.2c0.1,0.1,0,0.3,0,0.4c-0.1,0.3-0.9,0.5-1.2,0.5
			c-0.7,0-1.7-0.2-1.7-1.5c0-1.3,0.6-2.4,2-2.4c0.9,0,1.2,0.6,1.2,1c0,1-1,1.3-2,1.3c-0.3,0-0.5,0-0.6-0.1v0.1
			c0,0.8,0.4,1.1,1.1,1.1C39,33.6,39.4,33.2,39.5,33.2z M37.3,32h0.5c0.2,0,1.4,0,1.4-0.8c0-0.3-0.2-0.5-0.7-0.5
			C37.7,30.7,37.4,31.3,37.3,32z"/>
		<path fill="#B8CE50" d="M43.8,33.6c0.1,0,0.2,0,0.2,0c0,0,0,0,0,0.1c0,0,0,0.1,0,0.3c0,0.2-0.3,0.2-0.4,0.2
			c-0.4,0-0.7-0.2-0.7-0.7c0-0.2,0.2-2,0.2-2.1c0-0.4-0.2-0.6-0.6-0.6c-0.3,0-0.9,0.2-1.2,1.2c-0.1,0.9-0.2,2-0.2,2
			c0,0.1-0.1,0.2-0.3,0.2h0c-0.2,0-0.3-0.1-0.3-0.2c0,0,0.3-2.9,0.3-3.2c0-0.2,0-0.2,0-0.3c0-0.2,0.4-0.2,0.4-0.2
			c0.1,0,0.2,0,0.2,0.6c0,0,0,0,0,0.1c0.4-0.5,0.9-0.7,1.3-0.7c0.7,0,1,0.4,1,1c0,0.1-0.2,2-0.2,2.1C43.5,33.6,43.7,33.6,43.8,33.6z
			"/>
		<path fill="#B8CE50" d="M45.4,29.4c0-0.1,0.1-0.2,0.3-0.2h0c0.2,0,0.3,0.1,0.3,0.2l-0.1,0.8h0.6c0.1,0,0.1,0,0.1,0.1
			c0,0-0.1,0.4-0.3,0.4h-0.5c0,0-0.3,2.3-0.3,2.4c0,0.3,0.2,0.4,0.4,0.4c0.2,0,0.3-0.1,0.3-0.1c0,0,0.1,0,0.1,0.1c0,0,0,0.1,0,0.3
			c0,0.2-0.3,0.2-0.5,0.2c-0.3,0-0.8-0.1-0.8-0.8c0-0.2,0.3-2.6,0.3-2.6h-0.4c-0.1,0-0.1-0.1-0.1-0.2c0-0.1,0-0.3,0.2-0.3h0.4
			L45.4,29.4z"/>
		<path fill="#B8CE50" d="M48.2,33.6c0.1,0,0.2,0,0.2,0c0,0,0,0,0,0.1c0,0,0,0.1,0,0.3c0,0.2-0.3,0.2-0.4,0.2
			c-0.4,0-0.7-0.2-0.7-0.7c0-0.3,0.3-3,0.3-3c0-0.1,0.1-0.2,0.3-0.2h0c0.2,0,0.3,0.1,0.3,0.2c0,0-0.3,2.7-0.3,2.9
			C48,33.6,48.1,33.6,48.2,33.6z M47.8,28.7c0-0.1,0.1-0.2,0.3-0.2h0.1c0.2,0,0.3,0,0.3,0.2l0,0.4c0,0.1-0.1,0.2-0.3,0.2h-0.1
			c-0.2,0-0.3,0-0.3-0.2L47.8,28.7z"/>
		<path fill="#B8CE50" d="M52.5,28.5L52.5,28.5c0.2,0,0.3,0.1,0.3,0.2c0,0-0.5,4.4-0.5,4.6c0,0.3,0.1,0.3,0.3,0.3c0.1,0,0.2,0,0.2,0
			c0,0,0,0,0,0.1c0,0,0,0.1,0,0.3c0,0.2-0.3,0.2-0.4,0.2c-0.4,0-0.7-0.2-0.7-0.7v-0.1c-0.3,0.6-0.7,0.8-1.2,0.8
			c-0.5,0-1.4-0.3-1.4-1.6c0-1.4,0.7-2.3,1.9-2.3c0.5,0,0.8,0.2,1,0.3c0.1-1,0.2-1.8,0.2-1.8C52.2,28.6,52.3,28.5,52.5,28.5z M52,31
			c-0.1-0.1-0.4-0.3-0.9-0.3c-1,0-1.3,0.9-1.3,1.8c0,0.8,0.3,1.1,0.9,1.1c0.3,0,0.8-0.3,1.1-1.2L52,31z"/>
		<path fill="#B8CE50" d="M55.3,30.2c1,0,1.5,0.6,1.5,1.6c0,1.5-0.7,2.3-1.9,2.3c-1,0-1.5-0.6-1.5-1.6
			C53.3,31.3,53.9,30.2,55.3,30.2z M56.1,31.8c0-0.7-0.3-1.1-0.9-1.1c-0.8,0-1.2,0.7-1.2,1.8c0,0.7,0.3,1.1,0.9,1.1
			C55.7,33.6,56.1,32.9,56.1,31.8z"/>
	</g>
</g>
</svg>
