<?xml version="1.0" encoding="utf-8"?>
<!-- Generator: Adobe Illustrator 18.1.1, SVG Export Plug-In . SVG Version: 6.00 Build 0)  -->
<svg version="1.1" id="Layer_1" xmlns="http://www.w3.org/2000/svg" xmlns:xlink="http://www.w3.org/1999/xlink" x="0px" y="0px"
	 viewBox="0 0 80 120.1" enable-background="new 0 0 80 120.1" xml:space="preserve">
<g>
	<g>
		<path opacity="0.95" fill="#DD1E3A" d="M37.3,119.9c-0.2,0.1-0.3,0.2-0.4,0.2l0-0.1c0,0,0,0,0-0.1c0.1-0.6,2.4-15.7-4.7-22.4
			c-3-2.9-7-4.7-11.1-6.5c-6.5-2.9-13.1-5.9-18.2-13.5c-8.7-12.9,5.3-26.7,8-29c-0.6,2.5-2,11.2,4.5,19.3c3.1,3.9,10.4,7,15.5,10.2
			c3.3,2.1,5.3,3.5,8.3,6c-2.1-4.5-5.2-9.4-8.6-14.6c-5.9-9.2-12.6-19.6-16.3-31.7c-2.1-7.1-1.4-13.6,2.1-19.3
			C23.7,6.3,41.4,1,45.1,0c-2.8,2.7-12.9,13.7-9.9,30.3c1.4,7.5,6.9,15.2,12.7,23.5c7.8,11.1,15.9,22.5,15.8,35.1
			C63.7,104.7,37.6,119.7,37.3,119.9z"/>
		<path opacity="0.95" fill="#DD1E3A" d="M77.8,36c-1.6,3.3-3.7,6.4-7.3,9.4c-2.7,2.2-6.3,2.6-9.5,2.5c-3.2-0.1-8.6-1.1-11.4-6.3
			C46.4,35.7,46.9,29,51,23.8C60.9,11,53.6,1.9,52.1,0C54.5,0.7,74.5,6.8,79,20.1C80.6,24.7,80.4,30.6,77.8,36z"/>
	</g>
</g>
</svg>
