<?xml version="1.0" encoding="utf-8"?>
<!-- Generator: Adobe Illustrator 18.1.1, SVG Export Plug-In . SVG Version: 6.00 Build 0)  -->
<svg version="1.1" id="Layer_1" xmlns="http://www.w3.org/2000/svg" xmlns:xlink="http://www.w3.org/1999/xlink" x="0px" y="0px"
	 viewBox="0 0 400 274.1" enable-background="new 0 0 400 274.1" xml:space="preserve">
<g id="TEXTO">
	<g>
		<g>
			<path fill="#83CBAB" d="M114.2,2.5c0-0.7,0.2-1.3,0.7-1.8c0.5-0.5,1.1-0.7,1.8-0.7c0.7,0,1.3,0.2,1.8,0.7
				c0.5,0.5,0.7,1.1,0.7,1.8v43.7h20.5c0.7,0,1.3,0.2,1.8,0.7c0.5,0.5,0.7,1.1,0.7,1.8c0,0.7-0.2,1.3-0.7,1.8
				c-0.5,0.5-1.1,0.7-1.8,0.7h-23c-0.7,0-1.3-0.2-1.8-0.7c-0.5-0.5-0.7-1.1-0.7-1.8V2.5z"/>
			<path fill="#83CBAB" d="M146.4,2.5c0-0.7,0.2-1.3,0.7-1.8c0.5-0.5,1.1-0.7,1.8-0.7c0.7,0,1.3,0.2,1.8,0.7
				c0.5,0.5,0.7,1.1,0.7,1.8v43.7h20.5c0.7,0,1.3,0.2,1.8,0.7c0.5,0.5,0.7,1.1,0.7,1.8c0,0.7-0.2,1.3-0.7,1.8
				c-0.5,0.5-1.1,0.7-1.8,0.7h-23c-0.7,0-1.3-0.2-1.8-0.7c-0.5-0.5-0.7-1.1-0.7-1.8V2.5z"/>
			<path fill="#83CBAB" d="M178.8,2.5c0-0.7,0.2-1.3,0.7-1.8c0.5-0.5,1.1-0.7,1.8-0.7h24.6c0.7,0,1.3,0.2,1.8,0.7
				c0.5,0.5,0.7,1.1,0.7,1.8c0,0.7-0.2,1.3-0.7,1.8c-0.5,0.5-1.1,0.7-1.8,0.7h-22.1v17.9h14.7c0.7,0,1.3,0.2,1.8,0.7
				c0.5,0.5,0.7,1.1,0.7,1.8c0,0.7-0.2,1.3-0.7,1.8c-0.5,0.5-1.1,0.7-1.8,0.7h-14.7v18.4h22.1c0.7,0,1.3,0.2,1.8,0.7
				c0.5,0.5,0.7,1.1,0.7,1.8c0,0.7-0.2,1.3-0.7,1.8c-0.5,0.5-1.1,0.7-1.8,0.7h-24.6c-0.7,0-1.3-0.2-1.8-0.7
				c-0.5-0.5-0.7-1.1-0.7-1.8V2.5z"/>
			<path fill="#83CBAB" d="M215.6,3.4c-0.2-0.3-0.2-0.6-0.2-1c0-0.6,0.2-1.2,0.7-1.7c0.5-0.5,1.1-0.7,1.8-0.7c0.5,0,0.9,0.1,1.4,0.4
				c0.4,0.3,0.8,0.7,1,1.1l15.2,40.3l15-40.3c0.2-0.4,0.5-0.8,0.9-1.1c0.4-0.3,0.9-0.4,1.4-0.4c0.8,0,1.3,0.2,1.8,0.7
				c0.4,0.5,0.6,1,0.6,1.7c0,0.4-0.1,0.7-0.2,1l-17.2,45.9c-0.2,0.5-0.6,0.9-1,1.3c-0.5,0.4-0.9,0.6-1.4,0.6c-0.5,0-1-0.2-1.5-0.6
				c-0.4-0.4-0.7-0.8-0.9-1.2L215.6,3.4z"/>
			<path fill="#83CBAB" d="M267.9,1.8c0.2-0.4,0.5-0.8,0.9-1.2c0.4-0.4,0.9-0.6,1.5-0.6c0.5,0,1,0.2,1.5,0.6c0.4,0.4,0.8,0.8,1,1.3
				l20,45.9c0.1,0.2,0.2,0.5,0.2,1c0,0.6-0.2,1.2-0.6,1.7c-0.4,0.5-1,0.7-1.8,0.7c-1.1,0-1.9-0.5-2.3-1.5l-6.5-14.6h-22.7l-6.5,14.6
				c-0.2,0.5-0.5,0.9-1,1.1c-0.4,0.3-0.9,0.4-1.4,0.4c-0.8,0-1.4-0.2-1.8-0.7c-0.5-0.5-0.7-1-0.7-1.7c0-0.3,0.1-0.6,0.2-1L267.9,1.8
				z M270.2,9.3L261,29.9h18.4L270.2,9.3z"/>
		</g>
	</g>
	<g>
		<g>
			<path fill="#DD1E3A" d="M10.1,65.9V115c0,4.5,2,6.2,5.2,6.2c3.2,0,5.2-1.6,5.2-6.2V65.9h9.5v48.4c0,10.2-5.1,16-15.1,16
				S0,124.5,0,114.3V65.9H10.1z"/>
			<path fill="#DD1E3A" d="M47.5,83.4h-0.2v46.1h-9.1V65.9h12.7L61.1,104h0.2V65.9h9v63.6H59.9L47.5,83.4z"/>
			<path fill="#DD1E3A" d="M111.5,129.5h-10.2L99.5,118H87.1l-1.7,11.5h-9.3l10.3-63.6h14.8L111.5,129.5z M88.4,109.4h9.7l-4.8-32.2
				h-0.2L88.4,109.4z"/>
		</g>
	</g>
	<g>
		<g>
			<path fill="#DD1E3A" d="M156.9,111.1h0.2l6.8-45.2h14v63.6h-9.5V83.9h-0.2l-6.8,45.6h-9.5l-7.3-45h-0.2v45h-8.8V65.9h14
				L156.9,111.1z"/>
			<path fill="#DD1E3A" d="M196.2,65.9V115c0,4.5,2,6.2,5.2,6.2c3.2,0,5.2-1.6,5.2-6.2V65.9h9.5v48.4c0,10.2-5.1,16-15.1,16
				c-9.9,0-15.1-5.8-15.1-16V65.9H196.2z"/>
			<path fill="#DD1E3A" d="M234.5,92.7h13.9v9.1h-13.9v18.6H252v9.1h-27.5V65.9H252V75h-17.4V92.7z"/>
			<path fill="#DD1E3A" d="M273.1,65.2c9.8,0,14.9,5.8,14.9,16v2h-9.5v-2.6c0-4.5-1.8-6.3-5.1-6.3c-3.2,0-5,1.7-5,6.3
				c0,4.6,2,8.1,8.6,13.8c8.4,7.4,11.1,12.6,11.1,19.9c0,10.2-5.1,16-15.1,16s-15.1-5.8-15.1-16v-3.9h9.5v4.5c0,4.5,2,6.2,5.2,6.2
				c3.2,0,5.2-1.6,5.2-6.2c0-4.6-2-8.1-8.6-13.8c-8.4-7.4-11.1-12.6-11.1-19.9C258.2,71,263.3,65.2,273.1,65.2z"/>
			<path fill="#DD1E3A" d="M292.2,65.9h31.2V75h-10.6v54.5h-10.1V75h-10.6V65.9z"/>
			<path fill="#DD1E3A" d="M350.2,129.5c-0.6-1.6-0.9-2.6-0.9-7.8v-10c0-5.9-2-8.1-6.6-8.1h-3.5v25.9h-10.1V65.9h15.2
				c10.5,0,15,4.8,15,14.6v5c0,6.5-2.1,10.7-6.6,12.8v0.2c5,2.1,6.7,6.8,6.7,13.5v9.8c0,3.1,0.1,5.4,1.1,7.7H350.2z M339.2,75v19.5
				h3.9c3.8,0,6.1-1.6,6.1-6.7v-6.3c0-4.5-1.6-6.5-5.1-6.5H339.2z"/>
			<path fill="#DD1E3A" d="M400,129.5h-10.2l-1.7-11.5h-12.4l-1.7,11.5h-9.3l10.3-63.6h14.8L400,129.5z M377,109.4h9.7l-4.8-32.2
				h-0.2L377,109.4z"/>
		</g>
	</g>
	<g>
		<g>
			<path fill="#83CBAB" d="M24.3,151.1c0-0.6,0.2-1.1,0.6-1.5c0.4-0.4,0.9-0.6,1.5-0.6h11.5c2.9,0,5.7,0.6,8.3,1.7
				c2.6,1.1,4.8,2.6,6.8,4.5c1.9,1.9,3.5,4.2,4.6,6.7c1.1,2.6,1.7,5.3,1.7,8.2c0,2.9-0.6,5.7-1.7,8.2c-1.1,2.6-2.6,4.8-4.6,6.7
				c-1.9,1.9-4.2,3.4-6.8,4.5c-2.6,1.1-5.3,1.7-8.3,1.7H26.4c-0.6,0-1.1-0.2-1.5-0.6c-0.4-0.4-0.6-0.9-0.6-1.5V151.1z M28.4,153.1
				v34.1h9.4c2.4,0,4.6-0.5,6.7-1.4c2.1-0.9,3.9-2.1,5.5-3.7c1.6-1.5,2.8-3.4,3.7-5.4c0.9-2.1,1.3-4.3,1.3-6.6
				c0-2.3-0.4-4.5-1.3-6.6c-0.9-2.1-2.1-3.9-3.7-5.4c-1.6-1.5-3.4-2.8-5.5-3.6c-2.1-0.9-4.3-1.3-6.7-1.3H28.4z"/>
			<path fill="#83CBAB" d="M63.4,151.1c0-0.6,0.2-1.1,0.6-1.5c0.4-0.4,0.9-0.6,1.5-0.6h20.3c0.6,0,1.1,0.2,1.5,0.6
				c0.4,0.4,0.6,0.9,0.6,1.5c0,0.6-0.2,1.1-0.6,1.5c-0.4,0.4-0.9,0.6-1.5,0.6H67.5v14.8h12.2c0.6,0,1.1,0.2,1.5,0.6
				c0.4,0.4,0.6,0.9,0.6,1.5c0,0.6-0.2,1.1-0.6,1.5c-0.4,0.4-0.9,0.6-1.5,0.6H67.5v15.2h18.2c0.6,0,1.1,0.2,1.5,0.6
				c0.4,0.4,0.6,0.9,0.6,1.5c0,0.6-0.2,1.1-0.6,1.5c-0.4,0.4-0.9,0.6-1.5,0.6H65.5c-0.6,0-1.1-0.2-1.5-0.6c-0.4-0.4-0.6-0.9-0.6-1.5
				V151.1z"/>
			<path fill="#83CBAB" d="M104.9,151.1c0-0.6,0.2-1.1,0.6-1.5c0.4-0.4,0.9-0.6,1.5-0.6h10.9c1.6,0,3.1,0.3,4.5,0.9
				c1.4,0.6,2.6,1.4,3.6,2.4c1,1,1.9,2.2,2.5,3.6c0.6,1.4,0.9,2.8,0.9,4.4c0,1.5-0.3,3-0.9,4.4c-0.6,1.4-1.4,2.6-2.5,3.6
				c-1,1-2.3,1.8-3.6,2.4c-1.4,0.6-2.9,0.9-4.5,0.9h-8.8v17.6c0,0.6-0.2,1.1-0.6,1.5c-0.4,0.4-0.9,0.6-1.5,0.6
				c-0.6,0-1.1-0.2-1.5-0.6c-0.4-0.4-0.6-0.9-0.6-1.5V151.1z M109.1,153.1v14.4h8.8c1,0,1.9-0.2,2.8-0.6c0.9-0.4,1.7-0.9,2.3-1.6
				c0.7-0.7,1.2-1.4,1.6-2.3c0.4-0.9,0.6-1.8,0.6-2.8c0-1-0.2-1.9-0.6-2.8c-0.4-0.9-0.9-1.7-1.6-2.3c-0.7-0.7-1.4-1.2-2.3-1.6
				c-0.9-0.4-1.8-0.6-2.8-0.6H109.1z"/>
			<path fill="#83CBAB" d="M135.7,151.1c0-0.6,0.2-1.1,0.6-1.5c0.4-0.4,0.9-0.6,1.5-0.6h11c1.6,0,3.1,0.3,4.5,0.9
				c1.4,0.6,2.6,1.4,3.6,2.4c1,1,1.9,2.2,2.5,3.6c0.6,1.4,0.9,2.8,0.9,4.4c0,1.4-0.2,2.7-0.7,4c-0.5,1.2-1.2,2.3-2,3.3
				c-0.8,1-1.9,1.8-3,2.5c-1.2,0.7-2.4,1.1-3.8,1.4l10.2,16.3c0.1,0.2,0.3,0.5,0.4,0.7c0.1,0.3,0.2,0.6,0.2,0.9
				c0,0.4-0.2,0.8-0.5,1.2c-0.3,0.4-0.8,0.7-1.4,0.7c-0.4,0-0.8-0.1-1.1-0.3c-0.3-0.2-0.6-0.5-0.8-0.9l-11.4-18.5h-6.2v17.6
				c0,0.6-0.2,1.1-0.6,1.5c-0.4,0.4-0.9,0.6-1.5,0.6c-0.6,0-1.1-0.2-1.5-0.6c-0.4-0.4-0.6-0.9-0.6-1.5V151.1z M139.9,153.1v14.4h8.9
				c1,0,1.9-0.2,2.8-0.6c0.9-0.4,1.7-0.9,2.3-1.6c0.7-0.7,1.2-1.4,1.6-2.3c0.4-0.9,0.6-1.8,0.6-2.8c0-1-0.2-1.9-0.6-2.8
				c-0.4-0.9-0.9-1.7-1.6-2.3c-0.7-0.7-1.4-1.2-2.3-1.6c-0.9-0.4-1.8-0.6-2.8-0.6H139.9z"/>
			<path fill="#83CBAB" d="M184.7,149.2c2.9,0,5.7,0.6,8.3,1.7c2.6,1.1,4.8,2.6,6.8,4.5c1.9,1.9,3.5,4.2,4.6,6.7
				c1.1,2.6,1.7,5.3,1.7,8.2s-0.6,5.6-1.7,8.2c-1.1,2.6-2.6,4.8-4.6,6.7c-1.9,1.9-4.2,3.4-6.8,4.5c-2.6,1.1-5.3,1.7-8.3,1.7
				c-2.9,0-5.7-0.6-8.3-1.7c-2.6-1.1-4.8-2.6-6.8-4.5c-1.9-1.9-3.4-4.1-4.5-6.7c-1.1-2.6-1.7-5.3-1.7-8.2s0.6-5.6,1.7-8.2
				c1.1-2.6,2.6-4.8,4.5-6.7c1.9-1.9,4.2-3.4,6.8-4.5C179,149.7,181.8,149.2,184.7,149.2z M184.7,153.3c-2.4,0-4.6,0.4-6.7,1.3
				c-2.1,0.9-3.9,2.1-5.4,3.6c-1.5,1.5-2.8,3.4-3.6,5.4c-0.9,2.1-1.3,4.3-1.3,6.6c0,2.3,0.4,4.5,1.3,6.6c0.9,2.1,2.1,3.9,3.6,5.4
				c1.5,1.5,3.4,2.7,5.4,3.6c2.1,0.9,4.3,1.3,6.7,1.3c2.4,0,4.6-0.4,6.7-1.3c2.1-0.9,3.9-2.1,5.5-3.6c1.6-1.5,2.8-3.3,3.7-5.4
				c0.9-2.1,1.3-4.3,1.3-6.6c0-2.3-0.4-4.5-1.3-6.6c-0.9-2.1-2.1-3.9-3.7-5.4c-1.6-1.5-3.4-2.8-5.5-3.6
				C189.3,153.7,187.1,153.3,184.7,153.3z"/>
			<path fill="#83CBAB" d="M212.4,151.1c0-0.6,0.2-1.1,0.6-1.5c0.4-0.4,0.9-0.6,1.5-0.6H226c2.9,0,5.7,0.6,8.3,1.7
				c2.6,1.1,4.8,2.6,6.8,4.5c1.9,1.9,3.5,4.2,4.6,6.7c1.1,2.6,1.7,5.3,1.7,8.2c0,2.9-0.6,5.7-1.7,8.2c-1.1,2.6-2.6,4.8-4.6,6.7
				c-1.9,1.9-4.2,3.4-6.8,4.5c-2.6,1.1-5.3,1.7-8.3,1.7h-11.5c-0.6,0-1.1-0.2-1.5-0.6c-0.4-0.4-0.6-0.9-0.6-1.5V151.1z M216.5,153.1
				v34.1h9.4c2.4,0,4.6-0.5,6.7-1.4c2.1-0.9,3.9-2.1,5.5-3.7c1.6-1.5,2.8-3.4,3.7-5.4c0.9-2.1,1.3-4.3,1.3-6.6
				c0-2.3-0.4-4.5-1.3-6.6c-0.9-2.1-2.1-3.9-3.7-5.4c-1.6-1.5-3.4-2.8-5.5-3.6c-2.1-0.9-4.3-1.3-6.7-1.3H216.5z"/>
			<path fill="#83CBAB" d="M254.1,151.1c0-0.5,0.2-1,0.6-1.4c0.4-0.5,0.9-0.7,1.5-0.7c0.6,0,1.1,0.2,1.5,0.7
				c0.4,0.4,0.5,0.9,0.5,1.5v25.4c0,1.5,0.3,2.8,0.8,4.1c0.6,1.3,1.3,2.4,2.3,3.3c1,0.9,2.1,1.7,3.4,2.3c1.3,0.6,2.7,0.9,4.2,0.9
				c1.5,0,2.9-0.3,4.1-0.9c1.3-0.6,2.4-1.3,3.4-2.3c1-0.9,1.8-2.1,2.3-3.3c0.6-1.3,0.9-2.6,0.9-4.1v-25.5c0-0.5,0.2-1,0.6-1.4
				c0.4-0.5,0.9-0.7,1.5-0.7c0.6,0,1.1,0.2,1.5,0.7c0.4,0.5,0.5,1,0.5,1.5v25.4c0,2-0.4,3.9-1.2,5.7c-0.8,1.8-1.9,3.3-3.2,4.7
				c-1.3,1.3-2.9,2.4-4.7,3.1c-1.8,0.8-3.7,1.2-5.8,1.2c-2,0-4-0.4-5.8-1.2c-1.8-0.8-3.4-1.8-4.7-3.1c-1.3-1.3-2.4-2.9-3.2-4.7
				c-0.8-1.8-1.2-3.7-1.2-5.7V151.1z"/>
			<path fill="#83CBAB" d="M324.1,158.6c-1.6-1.4-3.5-2.6-5.6-3.7c-2.1-1.1-4.4-1.7-6.9-1.7c-2.4,0-4.6,0.4-6.7,1.3
				c-2.1,0.9-3.9,2.1-5.4,3.6c-1.5,1.5-2.8,3.4-3.6,5.4c-0.9,2.1-1.3,4.3-1.3,6.6c0,2.3,0.4,4.5,1.3,6.6c0.9,2.1,2.1,3.9,3.6,5.4
				c1.5,1.5,3.4,2.7,5.4,3.6c2.1,0.9,4.3,1.3,6.7,1.3c2.5,0,4.8-0.5,7-1.4c2.2-0.9,4-2.3,5.6-3.9c0.2-0.3,0.5-0.5,0.8-0.6
				c0.3-0.1,0.7-0.2,1-0.2c0.6,0,1,0.2,1.3,0.6c0.3,0.4,0.4,0.8,0.4,1.3c0,0.7-0.2,1.3-0.6,1.7c-2,2.1-4.3,3.8-7,4.9
				c-2.7,1.2-5.5,1.8-8.6,1.8c-2.9,0-5.7-0.6-8.3-1.7c-2.6-1.1-4.8-2.6-6.8-4.5c-1.9-1.9-3.4-4.1-4.5-6.7c-1.1-2.6-1.7-5.3-1.7-8.2
				s0.6-5.6,1.7-8.2c1.1-2.6,2.6-4.8,4.5-6.7c1.9-1.9,4.2-3.4,6.8-4.5c2.6-1.1,5.3-1.7,8.3-1.7c3,0,5.8,0.6,8.4,1.7
				c2.6,1.1,4.9,2.7,6.9,4.7c0.2,0.2,0.4,0.5,0.6,0.9c0.2,0.4,0.3,0.7,0.3,1.1c0,0.6-0.2,1-0.6,1.3c-0.4,0.3-0.9,0.5-1.4,0.5
				C325.1,159.3,324.5,159.1,324.1,158.6z"/>
			<path fill="#83CBAB" d="M330.1,153.1c-0.6,0-1.1-0.2-1.5-0.6c-0.4-0.4-0.6-0.9-0.6-1.5c0-0.6,0.2-1.1,0.6-1.5
				c0.4-0.4,0.9-0.6,1.5-0.6h23.2c0.6,0,1.1,0.2,1.5,0.6c0.4,0.4,0.6,0.9,0.6,1.5c0,0.6-0.2,1.1-0.6,1.5c-0.4,0.4-0.9,0.6-1.5,0.6
				h-9.5v36.1c0,0.6-0.2,1.1-0.6,1.5c-0.4,0.4-0.9,0.6-1.5,0.6c-0.6,0-1.1-0.2-1.5-0.6c-0.4-0.4-0.6-0.9-0.6-1.5v-36.1H330.1z"/>
			<path fill="#83CBAB" d="M376.7,149.2c2.9,0,5.7,0.6,8.3,1.7c2.6,1.1,4.8,2.6,6.8,4.5c1.9,1.9,3.5,4.2,4.6,6.7
				c1.1,2.6,1.7,5.3,1.7,8.2s-0.6,5.6-1.7,8.2c-1.1,2.6-2.6,4.8-4.6,6.7c-1.9,1.9-4.2,3.4-6.8,4.5c-2.6,1.1-5.3,1.7-8.3,1.7
				c-2.9,0-5.7-0.6-8.3-1.7c-2.6-1.1-4.8-2.6-6.8-4.5c-1.9-1.9-3.4-4.1-4.5-6.7c-1.1-2.6-1.7-5.3-1.7-8.2s0.6-5.6,1.7-8.2
				c1.1-2.6,2.6-4.8,4.5-6.7c1.9-1.9,4.2-3.4,6.8-4.5C371,149.7,373.7,149.2,376.7,149.2z M376.7,153.3c-2.4,0-4.6,0.4-6.7,1.3
				c-2.1,0.9-3.9,2.1-5.4,3.6c-1.5,1.5-2.8,3.4-3.6,5.4c-0.9,2.1-1.3,4.3-1.3,6.6c0,2.3,0.4,4.5,1.3,6.6c0.9,2.1,2.1,3.9,3.6,5.4
				c1.5,1.5,3.4,2.7,5.4,3.6c2.1,0.9,4.3,1.3,6.7,1.3c2.4,0,4.6-0.4,6.7-1.3c2.1-0.9,3.9-2.1,5.5-3.6c1.6-1.5,2.8-3.3,3.7-5.4
				c0.9-2.1,1.3-4.3,1.3-6.6c0-2.3-0.4-4.5-1.3-6.6c-0.9-2.1-2.1-3.9-3.7-5.4c-1.6-1.5-3.4-2.8-5.5-3.6
				C381.3,153.7,379,153.3,376.7,153.3z"/>
		</g>
	</g>
	<g>
		<g>
			<path fill="#DD1E3A" d="M118.1,235.6h15.1v21.5c0,10.8-5.5,17-16,17c-10.6,0-16-6.2-16-17v-35.2c0-10.8,5.5-17,16-17
				c10.6,0,16,6.2,16,17v6.6H123v-7.3c0-4.8-2.2-6.7-5.6-6.7c-3.4,0-5.6,1.8-5.6,6.7v36.6c0,4.8,2.2,6.6,5.6,6.6
				c3.4,0,5.6-1.7,5.6-6.6v-12.5h-4.9V235.6z"/>
			<path fill="#DD1E3A" d="M164,273.4c-0.6-1.7-1-2.8-1-8.3v-10.7c0-6.3-2.2-8.6-7-8.6h-3.7v27.6h-10.8v-67.8h16.2
				c11.2,0,15.9,5.1,15.9,15.6v5.3c0,7-2.3,11.4-7,13.7v0.2c5.4,2.2,7.1,7.3,7.1,14.3v10.5c0,3.3,0.1,5.7,1.2,8.2H164z M152.2,215.3
				v20.8h4.2c4,0,6.5-1.7,6.5-7.2v-6.7c0-4.8-1.7-7-5.5-7H152.2z"/>
			<path fill="#DD1E3A" d="M217,273.4h-10.9l-1.9-12.3h-13.2l-1.9,12.3h-9.9l11-67.8H206L217,273.4z M192.4,251.9h10.4l-5.1-34.3
				h-0.2L192.4,251.9z"/>
			<path fill="#DD1E3A" d="M216.5,205.6h33.3v9.7h-11.3v58.1h-10.8v-58.1h-11.3V205.6z"/>
			<path fill="#DD1E3A" d="M255.8,205.6h10.8v67.8h-10.8V205.6z"/>
			<path fill="#DD1E3A" d="M290.3,204.8c10.5,0,15.9,6.2,15.9,17v2.1h-10.2v-2.8c0-4.8-2-6.7-5.4-6.7c-3.4,0-5.4,1.8-5.4,6.7
				c0,4.9,2.2,8.6,9.2,14.7c9,7.8,11.8,13.5,11.8,21.2c0,10.8-5.5,17-16,17c-10.6,0-16-6.2-16-17v-4.2h10.2v4.8
				c0,4.8,2.2,6.6,5.6,6.6c3.4,0,5.6-1.7,5.6-6.6c0-4.9-2.2-8.6-9.2-14.7c-9-7.8-11.8-13.5-11.8-21.2
				C274.4,211,279.8,204.8,290.3,204.8z"/>
		</g>
	</g>
</g>
</svg>
