<?xml version="1.0" encoding="utf-8"?>
<!-- Generator: Adobe Illustrator 18.1.1, SVG Export Plug-In . SVG Version: 6.00 Build 0)  -->
<svg version="1.1" id="Layer_1" xmlns="http://www.w3.org/2000/svg" xmlns:xlink="http://www.w3.org/1999/xlink" x="0px" y="0px"
	 viewBox="0 0 400 228" enable-background="new 0 0 400 228" xml:space="preserve">
<g>
	<g>
		<g>
			<defs>
				<rect id="SVGID_7_" x="13.7" y="62.6" width="188.3" height="19.1"/>
			</defs>
			<clipPath id="SVGID_1_">
				<use xlink:href="#SVGID_7_"  overflow="visible"/>
			</clipPath>
			<g clip-path="url(#SVGID_1_)">
				<line fill="none" stroke="#FFFFFF" stroke-miterlimit="10" x1="-38.6" y1="16.6" x2="-118.6" y2="250.9"/>
				<line fill="none" stroke="#FFFFFF" stroke-miterlimit="10" x1="-32.7" y1="16.6" x2="-112.7" y2="250.9"/>
				<line fill="none" stroke="#FFFFFF" stroke-miterlimit="10" x1="-26.7" y1="16.6" x2="-106.7" y2="250.9"/>
				<line fill="none" stroke="#FFFFFF" stroke-miterlimit="10" x1="-20.8" y1="16.6" x2="-100.8" y2="250.9"/>
				<line fill="none" stroke="#FFFFFF" stroke-miterlimit="10" x1="-14.9" y1="16.6" x2="-94.8" y2="250.9"/>
				<line fill="none" stroke="#FFFFFF" stroke-miterlimit="10" x1="-8.9" y1="16.6" x2="-88.9" y2="250.9"/>
				<line fill="none" stroke="#FFFFFF" stroke-miterlimit="10" x1="-3" y1="16.6" x2="-82.9" y2="250.9"/>
				<line fill="none" stroke="#FFFFFF" stroke-miterlimit="10" x1="3" y1="16.6" x2="-77" y2="250.9"/>
				<line fill="none" stroke="#FFFFFF" stroke-miterlimit="10" x1="8.9" y1="16.6" x2="-71.1" y2="250.9"/>
				<line fill="none" stroke="#FFFFFF" stroke-miterlimit="10" x1="14.9" y1="16.6" x2="-65.1" y2="250.9"/>
				<line fill="none" stroke="#FFFFFF" stroke-miterlimit="10" x1="20.8" y1="16.6" x2="-59.2" y2="250.9"/>
				<line fill="none" stroke="#FFFFFF" stroke-miterlimit="10" x1="26.7" y1="16.6" x2="-53.2" y2="250.9"/>
				<line fill="none" stroke="#FFFFFF" stroke-miterlimit="10" x1="32.7" y1="16.6" x2="-47.3" y2="250.9"/>
				<line fill="none" stroke="#FFFFFF" stroke-miterlimit="10" x1="38.6" y1="16.6" x2="-41.3" y2="250.9"/>
				<line fill="none" stroke="#FFFFFF" stroke-miterlimit="10" x1="44.6" y1="16.6" x2="-35.4" y2="250.9"/>
				<line fill="none" stroke="#FFFFFF" stroke-miterlimit="10" x1="50.5" y1="16.6" x2="-29.5" y2="250.9"/>
				<line fill="none" stroke="#FFFFFF" stroke-miterlimit="10" x1="56.5" y1="16.6" x2="-23.5" y2="250.9"/>
				<line fill="none" stroke="#FFFFFF" stroke-miterlimit="10" x1="62.4" y1="16.6" x2="-17.6" y2="250.9"/>
				<line fill="none" stroke="#FFFFFF" stroke-miterlimit="10" x1="68.3" y1="16.6" x2="-11.6" y2="250.9"/>
				<line fill="none" stroke="#FFFFFF" stroke-miterlimit="10" x1="74.3" y1="16.6" x2="-5.7" y2="250.9"/>
				<line fill="none" stroke="#FFFFFF" stroke-miterlimit="10" x1="80.2" y1="16.6" x2="0.3" y2="250.9"/>
				<line fill="none" stroke="#FFFFFF" stroke-miterlimit="10" x1="86.2" y1="16.6" x2="6.2" y2="250.9"/>
				<line fill="none" stroke="#FFFFFF" stroke-miterlimit="10" x1="92.1" y1="16.6" x2="12.1" y2="250.9"/>
				<line fill="none" stroke="#FFFFFF" stroke-miterlimit="10" x1="98.1" y1="16.6" x2="18.1" y2="250.9"/>
				<line fill="none" stroke="#FFFFFF" stroke-miterlimit="10" x1="104" y1="16.6" x2="24" y2="250.9"/>
				<line fill="none" stroke="#FFFFFF" stroke-miterlimit="10" x1="109.9" y1="16.6" x2="30" y2="250.9"/>
				<line fill="none" stroke="#FFFFFF" stroke-miterlimit="10" x1="115.9" y1="16.6" x2="35.9" y2="250.9"/>
				<line fill="none" stroke="#FFFFFF" stroke-miterlimit="10" x1="121.8" y1="16.6" x2="41.9" y2="250.9"/>
				<line fill="none" stroke="#FFFFFF" stroke-miterlimit="10" x1="127.8" y1="16.6" x2="47.8" y2="250.9"/>
				<line fill="none" stroke="#FFFFFF" stroke-miterlimit="10" x1="133.7" y1="16.6" x2="53.7" y2="250.9"/>
				<line fill="none" stroke="#FFFFFF" stroke-miterlimit="10" x1="139.7" y1="16.6" x2="59.7" y2="250.9"/>
				<line fill="none" stroke="#FFFFFF" stroke-miterlimit="10" x1="145.6" y1="16.6" x2="65.6" y2="250.9"/>
				<line fill="none" stroke="#FFFFFF" stroke-miterlimit="10" x1="151.5" y1="16.6" x2="71.6" y2="250.9"/>
				<line fill="none" stroke="#FFFFFF" stroke-miterlimit="10" x1="157.5" y1="16.6" x2="77.5" y2="250.9"/>
				<line fill="none" stroke="#FFFFFF" stroke-miterlimit="10" x1="163.4" y1="16.6" x2="83.5" y2="250.9"/>
				<line fill="none" stroke="#FFFFFF" stroke-miterlimit="10" x1="169.4" y1="16.6" x2="89.4" y2="250.9"/>
				<line fill="none" stroke="#FFFFFF" stroke-miterlimit="10" x1="175.3" y1="16.6" x2="95.3" y2="250.9"/>
				<line fill="none" stroke="#FFFFFF" stroke-miterlimit="10" x1="181.3" y1="16.6" x2="101.3" y2="250.9"/>
				<line fill="none" stroke="#FFFFFF" stroke-miterlimit="10" x1="187.2" y1="16.6" x2="107.2" y2="250.9"/>
				<line fill="none" stroke="#FFFFFF" stroke-miterlimit="10" x1="193.1" y1="16.6" x2="113.2" y2="250.9"/>
				<line fill="none" stroke="#FFFFFF" stroke-miterlimit="10" x1="199.1" y1="16.6" x2="119.1" y2="250.9"/>
				<line fill="none" stroke="#FFFFFF" stroke-miterlimit="10" x1="205" y1="16.6" x2="125.1" y2="250.9"/>
				<line fill="none" stroke="#FFFFFF" stroke-miterlimit="10" x1="211" y1="16.6" x2="131" y2="250.9"/>
				<line fill="none" stroke="#FFFFFF" stroke-miterlimit="10" x1="216.9" y1="16.6" x2="136.9" y2="250.9"/>
				<line fill="none" stroke="#FFFFFF" stroke-miterlimit="10" x1="222.9" y1="16.6" x2="142.9" y2="250.9"/>
				<line fill="none" stroke="#FFFFFF" stroke-miterlimit="10" x1="228.8" y1="16.6" x2="148.8" y2="250.9"/>
				<line fill="none" stroke="#FFFFFF" stroke-miterlimit="10" x1="234.7" y1="16.6" x2="154.8" y2="250.9"/>
				<line fill="none" stroke="#FFFFFF" stroke-miterlimit="10" x1="240.7" y1="16.6" x2="160.7" y2="250.9"/>
				<line fill="none" stroke="#FFFFFF" stroke-miterlimit="10" x1="246.6" y1="16.6" x2="166.7" y2="250.9"/>
				<line fill="none" stroke="#FFFFFF" stroke-miterlimit="10" x1="252.6" y1="16.6" x2="172.6" y2="250.9"/>
				<line fill="none" stroke="#FFFFFF" stroke-miterlimit="10" x1="258.5" y1="16.6" x2="178.5" y2="250.9"/>
				<line fill="none" stroke="#FFFFFF" stroke-miterlimit="10" x1="264.5" y1="16.6" x2="184.5" y2="250.9"/>
			</g>
		</g>
		<line fill="none" stroke="#F1F1F2" stroke-width="3" stroke-miterlimit="10" x1="0.3" y1="97" x2="97.5" y2="97"/>
		<g>
			<path fill="#FFFFFF" d="M67.1,119.2c0-6.4,2.7-10.3,6.5-10.3c3,0,4.7,2.4,4.7,6.6c0,6.3-2.8,10.2-6.5,10.2
				C68.8,125.8,67.1,123.4,67.1,119.2z M74.8,115.2c0-2.3-0.5-3.5-1.6-3.5c-1.4,0-2.7,2.7-2.7,7.9c0,2.3,0.5,3.5,1.6,3.5
				C73.5,123,74.8,120.3,74.8,115.2z"/>
			<path fill="#FFFFFF" d="M89,122.2l-0.3,2.6c0,0.5-0.5,0.8-1.5,0.8h-0.6c-1,0-1.3-0.3-1.3-0.8l0.3-2.6h-6.1c-0.4,0-0.6-1.3-0.6-2
				c0-0.2,0-0.4,0.1-0.4l7.9-10.3c0.3-0.4,0.8-0.4,1.5-0.4h0.6c1,0,1.3,0.3,1.3,0.8l-1,9.7h0.9c0.4,0,0.6,0.3,0.6,0.8
				c0,1.1-0.2,1.9-0.9,1.9H89z M85.8,119.5l0.6-5.4l-0.1,0l-3.9,5.4H85.8z"/>
		</g>
	</g>
	<g>
		<defs>
			<path id="SVGID_9_" d="M299.3,0c64.6,0,100.4,40.4,100.4,114c0,73.6-35.8,114-100.4,114c-64.6,0-100.7-40.4-100.7-114
				C198.6,40.4,234.7,0,299.3,0z M350.1,114c0-46.8-17.3-72-50.8-72c-33.6,0-51.1,25.2-51.1,72s17.6,72.3,51.1,72.3
				C332.9,186.3,350.1,160.8,350.1,114z"/>
		</defs>
		<clipPath id="SVGID_2_">
			<use xlink:href="#SVGID_9_"  overflow="visible"/>
		</clipPath>
		<g clip-path="url(#SVGID_2_)">
			<defs>
				<rect id="SVGID_11_" x="-116.2" y="-23.7" width="779.9" height="211.3"/>
			</defs>
			<clipPath id="SVGID_3_">
				<use xlink:href="#SVGID_11_"  overflow="visible"/>
			</clipPath>
			<g clip-path="url(#SVGID_3_)">
				<line fill="none" stroke="#FFFFFF" stroke-miterlimit="10" x1="-98.5" y1="-125.4" x2="-275.2" y2="392.2"/>
				<line fill="none" stroke="#FFFFFF" stroke-miterlimit="10" x1="-85.4" y1="-125.4" x2="-262" y2="392.2"/>
				<line fill="none" stroke="#FFFFFF" stroke-miterlimit="10" x1="-72.3" y1="-125.4" x2="-248.9" y2="392.2"/>
				<line fill="none" stroke="#FFFFFF" stroke-miterlimit="10" x1="-59.1" y1="-125.4" x2="-235.8" y2="392.2"/>
				<line fill="none" stroke="#FFFFFF" stroke-miterlimit="10" x1="-46" y1="-125.4" x2="-222.6" y2="392.2"/>
				<line fill="none" stroke="#FFFFFF" stroke-miterlimit="10" x1="-32.9" y1="-125.4" x2="-209.5" y2="392.2"/>
				<line fill="none" stroke="#FFFFFF" stroke-miterlimit="10" x1="-19.8" y1="-125.4" x2="-196.4" y2="392.2"/>
				<line fill="none" stroke="#FFFFFF" stroke-miterlimit="10" x1="-6.6" y1="-125.4" x2="-183.3" y2="392.2"/>
				<line fill="none" stroke="#FFFFFF" stroke-miterlimit="10" x1="6.5" y1="-125.4" x2="-170.1" y2="392.2"/>
				<line fill="none" stroke="#FFFFFF" stroke-miterlimit="10" x1="19.6" y1="-125.4" x2="-157" y2="392.2"/>
				<line fill="none" stroke="#FFFFFF" stroke-miterlimit="10" x1="32.8" y1="-125.4" x2="-143.9" y2="392.2"/>
				<line fill="none" stroke="#FFFFFF" stroke-miterlimit="10" x1="45.9" y1="-125.4" x2="-130.8" y2="392.2"/>
				<line fill="none" stroke="#FFFFFF" stroke-miterlimit="10" x1="59" y1="-125.4" x2="-117.6" y2="392.2"/>
				<line fill="none" stroke="#FFFFFF" stroke-miterlimit="10" x1="72.1" y1="-125.4" x2="-104.5" y2="392.2"/>
				<line fill="none" stroke="#FFFFFF" stroke-miterlimit="10" x1="85.3" y1="-125.4" x2="-91.4" y2="392.2"/>
				<line fill="none" stroke="#FFFFFF" stroke-miterlimit="10" x1="98.4" y1="-125.4" x2="-78.3" y2="392.2"/>
				<line fill="none" stroke="#FFFFFF" stroke-miterlimit="10" x1="111.5" y1="-125.4" x2="-65.1" y2="392.2"/>
				<line fill="none" stroke="#FFFFFF" stroke-miterlimit="10" x1="124.6" y1="-125.4" x2="-52" y2="392.2"/>
				<line fill="none" stroke="#FFFFFF" stroke-miterlimit="10" x1="137.8" y1="-125.4" x2="-38.9" y2="392.2"/>
				<line fill="none" stroke="#FFFFFF" stroke-miterlimit="10" x1="150.9" y1="-125.4" x2="-25.8" y2="392.2"/>
				<line fill="none" stroke="#FFFFFF" stroke-miterlimit="10" x1="164" y1="-125.4" x2="-12.6" y2="392.2"/>
				<line fill="none" stroke="#FFFFFF" stroke-miterlimit="10" x1="177.1" y1="-125.4" x2="0.5" y2="392.2"/>
				<line fill="none" stroke="#FFFFFF" stroke-miterlimit="10" x1="190.3" y1="-125.4" x2="13.6" y2="392.2"/>
				<line fill="none" stroke="#FFFFFF" stroke-miterlimit="10" x1="203.4" y1="-125.4" x2="26.7" y2="392.2"/>
				<line fill="none" stroke="#FFFFFF" stroke-miterlimit="10" x1="216.5" y1="-125.4" x2="39.9" y2="392.2"/>
				<line fill="none" stroke="#FFFFFF" stroke-miterlimit="10" x1="229.6" y1="-125.4" x2="53" y2="392.2"/>
				<line fill="none" stroke="#FFFFFF" stroke-miterlimit="10" x1="242.8" y1="-125.4" x2="66.1" y2="392.2"/>
				<line fill="none" stroke="#FFFFFF" stroke-miterlimit="10" x1="255.9" y1="-125.4" x2="79.2" y2="392.2"/>
				<line fill="none" stroke="#FFFFFF" stroke-miterlimit="10" x1="269" y1="-125.4" x2="92.4" y2="392.2"/>
				<line fill="none" stroke="#FFFFFF" stroke-miterlimit="10" x1="282.1" y1="-125.4" x2="105.5" y2="392.2"/>
				<line fill="none" stroke="#FFFFFF" stroke-miterlimit="10" x1="295.3" y1="-125.4" x2="118.6" y2="392.2"/>
				<line fill="none" stroke="#FFFFFF" stroke-miterlimit="10" x1="308.4" y1="-125.4" x2="131.7" y2="392.2"/>
				<line fill="none" stroke="#FFFFFF" stroke-miterlimit="10" x1="321.5" y1="-125.4" x2="144.9" y2="392.2"/>
				<line fill="none" stroke="#FFFFFF" stroke-miterlimit="10" x1="334.6" y1="-125.4" x2="158" y2="392.2"/>
				<line fill="none" stroke="#FFFFFF" stroke-miterlimit="10" x1="347.8" y1="-125.4" x2="171.1" y2="392.2"/>
				<line fill="none" stroke="#FFFFFF" stroke-miterlimit="10" x1="360.9" y1="-125.4" x2="184.3" y2="392.2"/>
				<line fill="none" stroke="#FFFFFF" stroke-miterlimit="10" x1="374" y1="-125.4" x2="197.4" y2="392.2"/>
				<line fill="none" stroke="#FFFFFF" stroke-miterlimit="10" x1="387.2" y1="-125.4" x2="210.5" y2="392.2"/>
				<line fill="none" stroke="#FFFFFF" stroke-miterlimit="10" x1="400.3" y1="-125.4" x2="223.6" y2="392.2"/>
				<line fill="none" stroke="#FFFFFF" stroke-miterlimit="10" x1="413.4" y1="-125.4" x2="236.8" y2="392.2"/>
				<line fill="none" stroke="#FFFFFF" stroke-miterlimit="10" x1="426.5" y1="-125.4" x2="249.9" y2="392.2"/>
				<line fill="none" stroke="#FFFFFF" stroke-miterlimit="10" x1="439.7" y1="-125.4" x2="263" y2="392.2"/>
				<line fill="none" stroke="#FFFFFF" stroke-miterlimit="10" x1="452.8" y1="-125.4" x2="276.1" y2="392.2"/>
				<line fill="none" stroke="#FFFFFF" stroke-miterlimit="10" x1="465.9" y1="-125.4" x2="289.3" y2="392.2"/>
				<line fill="none" stroke="#FFFFFF" stroke-miterlimit="10" x1="479" y1="-125.4" x2="302.4" y2="392.2"/>
				<line fill="none" stroke="#FFFFFF" stroke-miterlimit="10" x1="492.2" y1="-125.4" x2="315.5" y2="392.2"/>
				<line fill="none" stroke="#FFFFFF" stroke-miterlimit="10" x1="505.3" y1="-125.4" x2="328.6" y2="392.2"/>
				<line fill="none" stroke="#FFFFFF" stroke-miterlimit="10" x1="518.4" y1="-125.4" x2="341.8" y2="392.2"/>
				<line fill="none" stroke="#FFFFFF" stroke-miterlimit="10" x1="531.5" y1="-125.4" x2="354.9" y2="392.2"/>
				<line fill="none" stroke="#FFFFFF" stroke-miterlimit="10" x1="544.7" y1="-125.4" x2="368" y2="392.2"/>
				<line fill="none" stroke="#FFFFFF" stroke-miterlimit="10" x1="557.8" y1="-125.4" x2="381.1" y2="392.2"/>
				<line fill="none" stroke="#FFFFFF" stroke-miterlimit="10" x1="570.9" y1="-125.4" x2="394.3" y2="392.2"/>
			</g>
		</g>
	</g>
</g>
</svg>
