<?xml version="1.0" encoding="utf-8"?>
<!-- Generator: Adobe Illustrator 18.1.1, SVG Export Plug-In . SVG Version: 6.00 Build 0)  -->
<svg version="1.1" id="Layer_1" xmlns="http://www.w3.org/2000/svg" xmlns:xlink="http://www.w3.org/1999/xlink" x="0px" y="0px"
	 viewBox="0 0 100 100" enable-background="new 0 0 100 100" xml:space="preserve">
<g>
	<path fill="none" d="M71.3,35.9c-1.6-2.1-3.6-3.9-5.8-5.5c-2.2-1.6-4.8-2.8-7.4-3.6c-1.3-0.4-2.7-0.7-4.2-0.9
		c-1.6-0.3-2.6-0.2-3.9-0.3c-0.3,0-0.1,0-0.2,0l-0.1,0l-0.1,0l-0.3,0l-0.5,0l-1,0.1c-0.7,0-1.4,0.1-2.1,0.3c-1.4,0.2-2.7,0.6-4.1,1
		c-2.6,0.9-5.1,2.1-7.3,3.7c-2.2,1.6-4.1,3.5-5.7,5.6c-1.5,2.1-2.8,4.4-3.7,6.8c-0.9,2.4-1.4,4.8-1.6,7.3c-0.2,1.3-0.1,2.3,0,3.4
		c0,0.7,0.1,1.2,0.2,1.8c0.1,0.6,0.1,1.1,0.2,1.7c0.9,4.4,2.7,8.3,5,11.4c2.3,3,5.1,5.3,7.7,6.9c2.6,1.6,5.1,2.5,7.2,3
		c0.5,0.1,1,0.2,1.5,0.4c0.5,0.1,0.9,0.1,1.3,0.2c0.8,0.1,1.5,0.2,2.1,0.2c1.2,0,1.8,0.1,1.8,0.1s-0.6,0-1.8-0.1
		c-0.6,0-1.3-0.1-2.1-0.2c-0.4-0.1-0.9-0.1-1.3-0.2c-0.5-0.1-1-0.3-1.5-0.4c-2.1-0.6-4.6-1.6-7-3.3c-2.5-1.7-4.9-4.1-6.8-7.2
		c-1.9-3.1-3.1-6.9-3.3-10.9c0-0.5,0-1,0-1.5c0-0.5,0-1.1,0.1-1.5c0.1-1.1,0.2-2.3,0.5-3.2c0.4-1.9,1.2-4,2.1-5.9
		c0.9-1.9,2.2-3.6,3.7-5.2c1.5-1.6,3.2-2.9,5-4.1c1.8-1.1,3.8-2,5.9-2.6c1.1-0.2,2.1-0.5,3.2-0.7c0.5-0.1,1.1-0.2,1.6-0.2l0.8,0
		l0.4,0l0.2,0l0.1,0l0.1,0c0,0,0,0,0,0c1.2,0,2.5,0,3.4,0.2c1,0.1,2,0.4,3.1,0.6c2.1,0.6,4.1,1.4,5.9,2.5c1.8,1.2,3.5,2.5,5,4
		c1.4,1.6,2.8,3.3,3.7,5.2c0.9,1.9,1.8,3.8,2.2,5.9c0.3,1,0.4,2,0.5,3.1l0,0.2l0,0.1l0,0c0-0.1,0,0,0,0l0,0.4l0,0.8
		c0,0.5,0,1.1,0,1.6c-0.1,1-0.1,1.9-0.3,2.9c-0.1,0.5-0.2,1-0.3,1.5c-0.1,0.5-0.3,0.9-0.4,1.4c-0.5,1.9-1.4,3.6-2.2,5.1
		c-1.8,3.1-4.2,5.6-6.7,7.3c-2.4,1.8-4.9,2.8-7,3.4c-0.5,0.1-1,0.3-1.5,0.4c-0.5,0.1-0.9,0.2-1.3,0.2c-0.8,0.1-1.5,0.3-2.1,0.3
		c-1.2,0.1-1.8,0.1-1.8,0.1s0.6,0,1.8-0.1c0.6,0,1.3-0.1,2.1-0.2c0.4-0.1,0.9-0.1,1.3-0.2c0.5-0.1,1-0.2,1.5-0.4
		c2.1-0.6,4.6-1.5,7.2-3.1c2.6-1.6,5.3-3.9,7.6-7c1.1-1.6,2.2-3.3,3-5.2c0.2-0.5,0.4-1,0.6-1.5c0.2-0.5,0.3-1,0.5-1.5
		c0.4-1,0.5-2.2,0.8-3.3c0.7-4.3,0.4-9.4-1.4-14.1C74.2,40.3,72.8,38,71.3,35.9z"/>
	<path fill="#70164A" d="M54.1,78.9c0.4-0.1,0.9-0.1,1.3-0.2c0.5-0.1,1-0.3,1.5-0.4c2.1-0.6,4.5-1.6,7-3.4c2.4-1.7,4.9-4.2,6.7-7.3
		c0.9-1.6,1.7-3.3,2.2-5.1c0.1-0.5,0.3-0.9,0.4-1.4c0.1-0.5,0.2-1,0.3-1.5c0.2-1,0.2-1.9,0.3-2.9c0-0.5,0-1.1,0-1.6l0-0.8l0-0.4
		c0,0,0-0.1,0,0l0,0l0-0.1l0-0.2c-0.1-1-0.2-2.1-0.5-3.1c-0.4-2-1.2-4-2.2-5.9c-1-1.9-2.3-3.6-3.7-5.2c-1.5-1.6-3.2-2.9-5-4
		c-1.9-1.1-3.9-1.9-5.9-2.6c-1.1-0.2-2.1-0.5-3.1-0.6c-0.9-0.2-2.2-0.2-3.4-0.2c0,0,0,0,0,0l-0.1,0l-0.1,0l-0.2,0L49,32l-0.8,0
		c-0.5,0-1.1,0.1-1.6,0.2c-1.1,0.1-2.1,0.4-3.2,0.7c-2.1,0.6-4.1,1.5-5.9,2.6c-1.8,1.2-3.5,2.5-5,4.1c-1.4,1.6-2.7,3.3-3.7,5.2
		c-0.9,1.9-1.7,3.9-2.1,5.9c-0.3,0.9-0.3,2.1-0.5,3.2c-0.1,0.4,0,1-0.1,1.5c0,0.5,0,1,0,1.5c0.2,4,1.5,7.8,3.3,10.9
		c1.9,3.1,4.3,5.5,6.8,7.2c2.4,1.7,4.9,2.7,7,3.3c0.5,0.1,1,0.3,1.5,0.4c0.5,0.1,0.9,0.1,1.3,0.2c0.8,0.1,1.5,0.2,2.1,0.2
		c1.2,0.1,1.8,0.1,1.8,0.1s0.6,0,1.8-0.1C52.6,79.1,53.3,79,54.1,78.9z M53.2,45c2.8-3.7,0.7-6.3,0.3-6.8c0.7,0.2,6.4,1.9,7.7,5.7
		c0.4,1.3,0.4,3-0.3,4.6c-0.4,0.9-1.1,1.8-2.1,2.7C58,51.8,57,52,56.1,51.9c-0.9,0-2.5-0.3-3.3-1.8C51.9,48.4,52.1,46.5,53.2,45z
		 M49.3,72.5c0,0-0.1,0-0.1,0.1l0,0l0,0c0-0.2,0.7-4.5-1.4-6.4c-0.9-0.8-2-1.3-3.2-1.9c-1.8-0.8-3.8-1.7-5.2-3.9
		c-2.5-3.7,1.5-7.6,2.3-8.3c-0.2,0.7-0.6,3.2,1.3,5.5c0.9,1.1,3,2,4.4,2.9c0.9,0.6,1.5,1,2.4,1.7c-0.6-1.3-1.5-2.7-2.5-4.2
		c-1.7-2.6-3.6-5.6-4.7-9.1c-0.6-2-0.4-3.9,0.6-5.5c2.1-3.4,7.2-5,8.2-5.2c-0.8,0.8-3.7,3.9-2.8,8.7c0.4,2.1,2,4.4,3.6,6.7
		c2.2,3.2,4.6,6.4,4.5,10C56.9,68.2,49.4,72.5,49.3,72.5z"/>
	<path fill="#70164A" d="M50,0C22.4,0,0,22.4,0,50c0,27.6,22.4,50,50,50c27.6,0,50-22.4,50-50C100,22.4,77.6,0,50,0z M76.5,56.8
		c-0.2,1.1-0.4,2.3-0.8,3.3c-0.2,0.5-0.3,1-0.5,1.5c-0.2,0.5-0.4,1-0.6,1.5c-0.8,1.9-1.9,3.6-3,5.2c-2.3,3.1-5,5.3-7.6,7
		c-2.6,1.6-5.1,2.5-7.2,3.1c-0.5,0.1-1,0.3-1.5,0.4c-0.5,0.1-0.9,0.2-1.3,0.2c-0.8,0.1-1.5,0.2-2.1,0.2c-1.2,0.1-1.8,0.1-1.8,0.1
		s-0.6,0-1.8-0.1c-0.6,0-1.3-0.1-2.1-0.2c-0.4-0.1-0.9-0.1-1.3-0.2c-0.5-0.1-1-0.2-1.5-0.4c-2.1-0.5-4.6-1.4-7.2-3
		c-2.6-1.6-5.3-3.8-7.7-6.9c-2.3-3.1-4.1-6.9-5-11.4c-0.1-0.5-0.2-1.1-0.2-1.7c-0.1-0.6-0.2-1.1-0.2-1.8c0-1.1-0.1-2.2,0-3.4
		c0.1-2.5,0.7-4.9,1.6-7.3c0.9-2.4,2.2-4.7,3.7-6.8c1.6-2.1,3.6-4,5.7-5.6c2.2-1.6,4.7-2.8,7.3-3.7c1.3-0.4,2.7-0.8,4.1-1
		c0.7-0.1,1.4-0.2,2.1-0.3l1-0.1l0.5,0l0.3,0l0.1,0l0.1,0c0.1,0-0.1,0,0.2,0c1.3,0.1,2.4,0,3.9,0.3c1.5,0.2,2.8,0.5,4.2,0.9
		c2.6,0.9,5.2,2.1,7.4,3.6c2.2,1.6,4.2,3.4,5.8,5.5c1.6,2.1,2.9,4.4,3.8,6.7C76.9,47.4,77.3,52.5,76.5,56.8z"/>
</g>
</svg>
