<?xml version="1.0" encoding="utf-8"?>
<!-- Generator: Adobe Illustrator 18.1.1, SVG Export Plug-In . SVG Version: 6.00 Build 0)  -->
<svg version="1.1" id="Layer_1" xmlns="http://www.w3.org/2000/svg" xmlns:xlink="http://www.w3.org/1999/xlink" x="0px" y="0px"
	 viewBox="0 0 100 100" enable-background="new 0 0 100 100" xml:space="preserve">
<g>
	<circle fill="#70164A" cx="50" cy="50" r="50"/>
	<g>
		<path fill="#FFFFFF" d="M64.2,73.2c0,2.4-1.9,4.3-4.2,4.3H42.5c-2.3,0-4.2-1.9-4.2-4.3V33.7c0-2.4,1.9-4.3,4.2-4.3H60
			c2.3,0,4.2,1.9,4.2,4.3V73.2z"/>
		<rect x="43.8" y="26.4" fill="#FFFFFF" width="14.5" height="0.7"/>
		<rect x="43.6" y="19.8" fill="#FFFFFF" width="14.6" height="7.7"/>
		<ellipse fill="#FFFFFF" cx="50.9" cy="19.8" rx="7.3" ry="0.8"/>
		<ellipse fill="#FFFFFF" cx="51" cy="29.6" rx="7" ry="0.8"/>
		<g>
			<g>
				<path opacity="0.95" fill="#70164A" d="M50.3,67.1C50.2,67.1,50.2,67.1,50.3,67.1L50.3,67.1L50.3,67.1c-0.1-0.1,0.4-3.4-1.1-4.9
					c-0.7-0.6-1.5-1-2.4-1.4c-1.4-0.6-2.9-1.3-4-3c-1.9-2.8,1.2-5.9,1.8-6.4c-0.1,0.6-0.4,2.5,1,4.3c0.7,0.9,2.3,1.5,3.4,2.2
					c0.7,0.5,1.2,0.8,1.8,1.3c-0.5-1-1.2-2.1-1.9-3.2c-1.3-2-2.8-4.3-3.6-7c-0.5-1.6-0.3-3,0.5-4.3c1.6-2.6,5.5-3.8,6.3-4
					c-0.6,0.6-2.8,3-2.2,6.7c0.3,1.6,1.5,3.4,2.8,5.2c1.7,2.4,3.5,5,3.5,7.7C56.1,63.7,50.3,67,50.3,67.1z"/>
				<path opacity="0.95" fill="#70164A" d="M59.2,48.6c-0.3,0.7-0.8,1.4-1.6,2.1c-0.6,0.5-1.4,0.6-2.1,0.5c-0.7,0-1.9-0.3-2.5-1.4
					c-0.7-1.3-0.6-2.7,0.3-3.9c2.2-2.8,0.6-4.8,0.2-5.2c0.5,0.2,4.9,1.5,5.9,4.4C59.8,46.1,59.8,47.4,59.2,48.6z"/>
			</g>
		</g>
	</g>
</g>
</svg>
