<?xml version="1.0" encoding="utf-8"?>
<!-- Generator: Adobe Illustrator 18.1.1, SVG Export Plug-In . SVG Version: 6.00 Build 0)  -->
<svg version="1.1" id="Layer_1" xmlns="http://www.w3.org/2000/svg" xmlns:xlink="http://www.w3.org/1999/xlink" x="0px" y="0px"
	 viewBox="0 0 100 100" enable-background="new 0 0 100 100" xml:space="preserve">
<g>
	<path fill="#70164A" d="M56,31.9H43.9c-0.7,0-1.3,1-1.3,1.7v2.2h1v1h12.7v-1h1v-2.2C57.4,32.8,56.7,31.9,56,31.9z"/>
	<path fill="#70164A" d="M50,0C22.4,0,0,22.4,0,50c0,27.6,22.4,50,50,50c27.6,0,50-22.4,50-50C100,22.4,77.6,0,50,0z M76,66.8
		c0,1.9-1.8,3.3-3.7,3.3H27.6c-1.9,0-3.6-1.4-3.6-3.3v-5.1c0-0.3,0.4-0.4,0.7-0.4h20.9v0.9c0,0.7,0.8,1.1,1.5,1.1h5.8
		c0.7,0,1.5-0.4,1.5-1.1v-0.9h20.8c0.3,0,0.8,0.1,0.8,0.4V66.8z M76,59.1c0,0.3-0.5,0.2-0.8,0.2H54.4v-0.7c0-0.7-0.8-1.3-1.5-1.3
		h-5.8c-0.7,0-1.5,0.6-1.5,1.3v0.7H24.7c-0.3,0-0.7,0.1-0.7-0.2v-19c0-1.9,1.7-3.4,3.6-3.4h12.1v-1h1v-2.5c0-1.9,1-3.4,2.9-3.4h12.7
		c1.9,0,3,1.5,3,3.4v2.5h1v1h12c1.9,0,3.7,1.5,3.7,3.4V59.1z"/>
</g>
</svg>
