<?xml version="1.0" encoding="utf-8"?>
<!-- Generator: Adobe Illustrator 18.1.1, SVG Export Plug-In . SVG Version: 6.00 Build 0)  -->
<svg version="1.1" id="Layer_1" xmlns="http://www.w3.org/2000/svg" xmlns:xlink="http://www.w3.org/1999/xlink" x="0px" y="0px"
	 viewBox="0 0 100 100" enable-background="new 0 0 100 100" xml:space="preserve">
<path fill="#70164A" d="M50,0C22.4,0,0,22.4,0,50c0,27.6,22.4,50,50,50c27.6,0,50-22.4,50-50C100,22.4,77.6,0,50,0z M73.7,47
	l-12.4,9l4.8,14.5c0.3,1,0,2.1-0.9,2.7c-0.9,0.6-2,0.6-2.9,0l-12.3-9l-12.3,9c-0.9,0.6-2,0.6-2.9,0c-0.9-0.6-1.2-1.7-0.9-2.7
	l4.8-14.5l-12.4-9c-0.9-0.6-1.2-1.7-0.9-2.7c0.3-1,1.3-1.7,2.3-1.7l15.3,0L47.7,28c0.3-1,1.2-1.7,2.3-1.7c1.1,0,2,0.7,2.3,1.7
	L57,42.6l15.3,0c1.1,0,2,0.7,2.3,1.7C74.9,45.3,74.6,46.3,73.7,47z"/>
</svg>
