<?xml version="1.0" encoding="utf-8"?>
<!-- Generator: Adobe Illustrator 18.1.1, SVG Export Plug-In . SVG Version: 6.00 Build 0)  -->
<svg version="1.1" id="Layer_1" xmlns="http://www.w3.org/2000/svg" xmlns:xlink="http://www.w3.org/1999/xlink" x="0px" y="0px"
	 viewBox="0 0 72 108.1" enable-background="new 0 0 72 108.1" xml:space="preserve">
<g>
	<path opacity="0.95" fill="#FFFFFF" d="M33.6,107.9c-0.2,0.1-0.3,0.1-0.4,0.2l0-0.1c0,0,0,0,0-0.1c0.1-0.6,2.1-14.1-4.3-20.2
		c-2.7-2.6-6.3-4.2-10-5.9c-5.8-2.6-11.8-5.3-16.4-12.2c-7.8-11.6,4.8-24,7.2-26.1c-0.5,2.3-1.8,10,4.1,17.4
		c2.8,3.5,9.4,6.3,13.9,9.2c2.9,1.9,4.7,3.1,7.4,5.4c-1.9-4-4.7-8.4-7.7-13.1C22.1,54.1,16,44.8,12.8,33.9
		c-1.9-6.4-1.3-12.2,1.9-17.4C21.3,5.7,37.3,0.9,40.6,0c-2.5,2.4-11.7,12.3-8.9,27.3C32.9,34,37.9,41,43.1,48.4
		c7,10,14.3,20.3,14.3,31.6C57.3,94.3,33.8,107.8,33.6,107.9z"/>
	<path opacity="0.95" fill="#FFFFFF" d="M70,32.4c-1.4,2.9-3.3,5.8-6.6,8.4c-2.4,2-5.7,2.3-8.5,2.2c-2.9-0.1-7.8-1-10.3-5.7
		c-2.8-5.3-2.4-11.2,1.3-16c8.9-11.5,2.3-19.7,1-21.4C49,0.6,67.1,6.1,71.1,18C72.5,22.3,72.4,27.5,70,32.4z"/>
</g>
</svg>
