<?xml version="1.0" encoding="utf-8"?>
<!-- Generator: Adobe Illustrator 18.1.1, SVG Export Plug-In . SVG Version: 6.00 Build 0)  -->
<svg version="1.1" id="Layer_1" xmlns="http://www.w3.org/2000/svg" xmlns:xlink="http://www.w3.org/1999/xlink" x="0px" y="0px"
	 viewBox="0 0 100 100" enable-background="new 0 0 100 100" xml:space="preserve">
<g>
	<polygon opacity="0.95" fill="#034E79" points="38,57.7 51,64 51,34.7 38,40.5 	"/>
	<path opacity="0.95" fill="#034E79" d="M49.9-0.2c-27.6,0-50,22.4-50,50c0,27.6,22.4,50,50,50c27.6,0,50-22.4,50-50
		C99.9,22.2,77.6-0.2,49.9-0.2z M58,29.1v40.7v5.8l-5.2-2.5l-20.7-9.8l-2.1-1V60h-7V38h7v-2.2l2.3-1l20.7-9.1l5.1-2.3V29.1z
		 M66.8,58.8c-0.8,0.8-2.1,0.7-2.9-0.1c-0.8-0.8-0.7-2.1,0.1-2.9c0.1-0.1,0.2-0.2,0.4-0.4c1.6-1.7,2.4-4.1,2.3-6.5
		c0-2.4-0.8-4.8-2.4-6.4c-0.1-0.1-0.2-0.2-0.4-0.3c-0.8-0.8-0.9-2.1-0.1-2.9c0.8-0.8,2.1-0.9,2.9-0.1c0.2,0.1,0.3,0.3,0.5,0.6
		c2.2,2.4,3.4,5.8,3.5,9.1c0,3.4-1.1,6.8-3.4,9.3C67.2,58.4,67.1,58.6,66.8,58.8z M73.6,62.3c0,0-0.1,0.1-0.1,0.1
		c-0.8,0.7-2,0.7-2.8,0c-0.8-0.8-0.8-2-0.1-2.8c0,0,0.1-0.1,0.1-0.1c2.7-2.7,3.9-6.7,3.9-10.6c0-4-1.4-7.8-3.9-10.4l-0.1-0.1
		c-0.8-0.8-0.8-2.1,0-2.9c0.8-0.8,2.1-0.8,2.9,0l0.1,0.1l0,0c3.3,3.3,5,8.2,5.1,13.2C78.7,53.8,77.1,58.8,73.6,62.3z"/>
</g>
</svg>
