<?xml version="1.0" encoding="utf-8"?>
<!-- Generator: Adobe Illustrator 18.1.1, SVG Export Plug-In . SVG Version: 6.00 Build 0)  -->
<svg version="1.1" id="Layer_1" xmlns="http://www.w3.org/2000/svg" xmlns:xlink="http://www.w3.org/1999/xlink" x="0px" y="0px"
	 viewBox="0 0 100 100" enable-background="new 0 0 100 100" xml:space="preserve">
<path opacity="0.95" fill="#034E79" d="M49.7-0.2c-27.6,0-50,22.4-50,50c0,27.6,22.4,50,50,50c27.6,0,50-22.4,50-50
	C99.7,22.2,77.3-0.2,49.7-0.2z M53,73h-9c-9.9-3-19.3-9.3-17.9-21.5C36,49.9,45,53.9,47,60.2v-9c-10-3.8-13.2-18-3.8-24l2.5,6.8
	l4.3-6.1l4.2,6.2l2.6-6.9c9.3,6,7.2,20.3-3.8,24V73z M58.8,73H56V55.6c4-3.2,10-4.6,16.8-3.5C73.8,61,67.1,69,58.8,73z"/>
</svg>
