<?xml version="1.0" encoding="utf-8"?>
<!-- Generator: Adobe Illustrator 18.1.1, SVG Export Plug-In . SVG Version: 6.00 Build 0)  -->
<svg version="1.1" id="Layer_1" xmlns="http://www.w3.org/2000/svg" xmlns:xlink="http://www.w3.org/1999/xlink" x="0px" y="0px"
	 viewBox="0 0 100 100" enable-background="new 0 0 100 100" xml:space="preserve">
<path opacity="0.95" fill="#034E79" d="M50.1-0.2c-27.6,0-50,22.4-50,50c0,27.6,22.4,50,50,50c27.6,0,50-22.4,50-50
	C100.1,22.2,77.8-0.2,50.1-0.2z M32.5,64.8c-1,0.2-2.8-1.4-3.4-2.6c-0.6-1.3,1.8-4.2,3-3.8c1.4,0.4,2.6,1.5,4.5,2.6
	C34.8,62.7,33.8,64.5,32.5,64.8z M35.6,67c-0.5-0.3-0.8-1.9-0.5-2.6c0.7-1.7,1.6-3.3,2.7-4.7c0.5-0.7,2-1.1,2.7-0.9
	c1.1,0.3,1.9,1.4,3,2.4c-1.6,2.6-2.8,4.9-4.5,6.8C38.8,68.4,36.6,67.6,35.6,67z M42.3,71.1c-2.1-1.2-2.2-2.5-1-4.4
	c1.2-1.9,2.1-4,3.5-5.7c0.5-0.7,2-1.1,2.8-0.9c1.1,0.4,1.9,1.5,2.9,2.2c-0.5,1-0.8,1.6-1.1,2.2c-1,1.7-2,3.4-3,5.2
	C45.4,71.5,44.5,72.3,42.3,71.1z M47,73.6c-0.4-0.2-0.6-1.8-0.3-2.4c1-2.1,2.1-4.2,3.5-6c0.5-0.6,2-1.1,2.8-0.8
	c1.1,0.4,1.9,1.5,2.9,2.4c-1.8,3-3.3,5.6-5.1,8C50.5,75.1,48.2,74.2,47,73.6z M70.3,55.5c2,1,1.9,2.5,1,4.1c-1,1.8-2.3,2.2-4.1,1
	c-1.9-1.2-3.8-2.2-5.7-3.3c-0.1,0.2-0.3,0.5-0.4,0.7c1.5,0.9,3,1.9,4.6,2.7c2.1,1,1.8,2.5,0.9,4.1c-0.9,1.6-2.1,2.2-3.9,1.1
	c-1.6-1-3.2-1.8-5.1-2.5c2.2,1.6,4.4,3,2,5.9c-1.1,1.4-2.4,1.6-3.7,0.3c1.2-4.6,0.9-5.2-3.7-6.9c-0.4-0.1-0.7-0.6-0.9-1
	c-1.9-3.2-4-3.9-7.4-2.5c-3.6-2.9-5-2.9-7.4-0.2c-4.2-2.8-5.3-2.9-7.8,0c-3.8-1-7.6-1.9-11.4-3.1c-0.7-0.2-1.7-1.1-1.8-1.8
	c-0.7-7.3,0.2-14.3,3.9-21c4.2,1.1,8.3,2.3,12.5,3.3c1.1,0.3,2.6,0.1,3.6-0.4c2.9-1.5,5.7-3.3,8.6-4.8c1.1-0.5,2.5-0.5,4-0.2
	c-6,2.9-5.2,8.8-6.6,13.6c-0.7,2.2,1.1,3.9,4.2,4.6c3.2,0.7,4.7,0.1,5.4-2.3c0.5-1.8,0.8-3.7,1.3-5.5c0.6-2.2,2.1-2.9,4-1.8
	c5.7,3.3,11.4,6.6,17.1,9.8c1.8,1,2.3,2.3,1.3,4c-1,1.8-2.3,2.4-4.2,1.2c-1.8-1.2-3.8-2.2-5.8-3.2c-0.1,0.2-0.2,0.5-0.3,0.7
	C66.5,53.3,68.3,54.5,70.3,55.5z M85.2,54.4c-0.1,0.7-1,1.8-1.8,2c-3.2,1-6.5,1.9-10.3,2.4c0-0.1,0.1-0.1,0.1-0.2
	c-0.1,0-0.1,0-0.2,0c0.5-0.9,0.8-2,1.5-2.6c1.9-1.8,2.6-3.5,2-5c-0.4-0.9-1.3-1.8-2.7-2.6c-5.6-3.2-11.3-6.4-16.9-9.6
	c-2.1-1.2-4.7-0.2-5.4,2.2c-0.5,1.9-0.9,3.9-1.4,5.8c-0.6,2.6-2.7,1.9-4.2,1.6c-1.2-0.3-2.6-0.7-3-2c-0.2-0.4-0.2-0.9-0.1-1.6
	c0.6-2.7,1-5.5,2-8.1c0.4-1.3,1.7-2.4,2.8-3.2c7.3-5.4,5.7-5.8,13.6-0.6c4.9,3.2,9.5,4.2,14.9,1.9c1.6-0.7,3.3-0.9,5.1-1.4
	c0.9,1.7,1.7,3.4,2.3,5.1C85.3,43.7,85.7,49,85.2,54.4z"/>
</svg>
