<?xml version="1.0" encoding="utf-8"?>
<!-- Generator: Adobe Illustrator 18.1.1, SVG Export Plug-In . SVG Version: 6.00 Build 0)  -->
<svg version="1.1" id="Layer_1" xmlns="http://www.w3.org/2000/svg" xmlns:xlink="http://www.w3.org/1999/xlink" x="0px" y="0px"
	 viewBox="0 0 100 150.1" enable-background="new 0 0 100 150.1" xml:space="preserve">
<g>
	<path opacity="0.95" fill="#FFFFFF" d="M46.6,149.9c-0.2,0.1-0.4,0.2-0.5,0.2l0-0.1c0,0,0,0,0-0.1c0.1-0.8,3-19.6-5.9-28
		c-3.8-3.6-8.7-5.8-13.9-8.2c-8.1-3.6-16.4-7.4-22.8-16.9c-10.9-16.2,6.7-33.3,9.9-36.3c-0.8,3.1-2.5,14,5.7,24.2
		c3.9,4.9,13,8.7,19.3,12.7c4.1,2.6,6.6,4.4,10.3,7.5c-2.6-5.6-6.6-11.7-10.7-18.2c-7.4-11.5-15.8-24.5-20.4-39.6
		c-2.7-8.9-1.8-17,2.6-24.2c9.3-15,31.4-21.7,36-22.9C52.9,3.3,40.2,17.1,44,37.9c1.7,9.3,8.6,19.1,15.9,29.4
		c9.8,13.8,19.9,28.2,19.8,43.9C79.6,130.9,47,149.7,46.6,149.9z"/>
	<path opacity="0.95" fill="#FFFFFF" d="M97.2,45c-2,4.1-4.6,8.1-9.2,11.7c-3.4,2.7-7.9,3.3-11.9,3.1c-4-0.2-10.8-1.4-14.3-7.9
		c-4-7.3-3.3-15.6,1.8-22.2C76.1,13.8,67,2.4,65.1,0c3,0.9,28.1,8.5,33.7,25.1C100.7,30.9,100.5,38.2,97.2,45z"/>
</g>
</svg>
